<?xml version="1.0" encoding="utf-8"?>
<svg version="1.1" xmlns:xlink="http://www.w3.org/1999/xlink" width="12px" height="12px" xmlns="http://www.w3.org/2000/svg">
  <g>
    <path d="M 12 6  C 12 2.68678739062489  9.313212609375 0  6 0  C 2.686787390625 0  0 2.68678739062511  0 6  C 0 9.31321260937511  2.686787390625 12  6 12  C 9.313212609375 12  12 9.31321260937511  12 6  Z M 6.60603622265626 6  L 8.82843728906255 8.22266934375011  C 8.91132735048723 8.3033493193625  8.95808486061674 8.41410965881687  8.95808486061674 8.52978169842822  C 8.95808486061674 8.76647516541516  8.76620689401 8.95835313202201  8.52951342702295 8.95835313202201  C 8.4138413902873 8.95835313202201  8.30308105333472 8.91159562421012  8.22240107812502 8.82870556640614  L 6 6.60603622265626  L 3.77759892187498 8.82843728906255  C 3.69691893155618 8.91132748265932  3.58615850077649 8.9580850773998  3.47048635619387 8.9580850773998  C 3.23379288920694 8.9580850773998  3.04191492260009 8.76620711079318  3.04191492260009 8.52951364380601  C 3.04191492260009 8.41384149922351  3.0886725173408 8.30308106844382  3.17156271093745 8.2224010781249  L 5.39396377734374 6  L 3.17156271093745 3.7775989218751  C 3.09368186066229 3.69758454989415  3.05010384302489 3.59033425101438  3.05010384302489 3.47867527661856  C 3.05010384302489 3.24198180963162  3.24198180963162 3.05010384302477  3.47867527661856 3.05010384302477  C 3.59033425101427 3.05010384302477  3.69758454989403 3.09368186066217  3.77759892187498 3.17156271093745  L 6 5.39396377734374  L 8.22240107812502 3.17156271093745  C 8.30241545010597 3.0936818606624  8.40966574898573 3.05010384302477  8.52132472338144 3.05010384302477  C 8.75801819036838 3.05010384302477  8.94989615697511 3.24198180963162  8.94989615697511 3.47867527661856  C 8.94989615697511 3.59033425101438  8.90631813933771 3.69758454989415  8.82843728906255 3.7775989218751  L 6.60603622265626 6  Z " fill-rule="nonzero" fill="#000000" stroke="none" />
  </g>
</svg>