<?xml version="1.0" encoding="utf-8"?>
<svg version="1.1" xmlns:xlink="http://www.w3.org/1999/xlink" width="138px" height="56px" xmlns="http://www.w3.org/2000/svg">
  <g transform="matrix(1 0 0 1 -971 -321 )">
    <path d="M 972 326  A 4 4 0 0 1 976 322 L 1104 322  A 4 4 0 0 1 1108 326 L 1108 372  A 4 4 0 0 1 1104 376 L 976 376  A 4 4 0 0 1 972 372 L 972 326  Z " fill-rule="nonzero" fill="#ffffff" stroke="none" />
    <path d="M 971.5 326  A 4.5 4.5 0 0 1 976 321.5 L 1104 321.5  A 4.5 4.5 0 0 1 1108.5 326 L 1108.5 372  A 4.5 4.5 0 0 1 1104 376.5 L 976 376.5  A 4.5 4.5 0 0 1 971.5 372 L 971.5 326  Z " stroke-width="1" stroke="#858f9e" fill="none" stroke-opacity="0.294117647058824" />
  </g>
</svg>