<?xml version="1.0" encoding="utf-8"?>
<svg version="1.1" xmlns:xlink="http://www.w3.org/1999/xlink" width="13px" height="13px" xmlns="http://www.w3.org/2000/svg">
  <g transform="matrix(1 0 0 1 -1082 -343 )">
    <path d="M 12.99365234375 6.5  C 12.99365234375 2.9139423828125  10.086095703125 0.00634765625  6.49964453125 0.00634765625  C 3.730720703125 0.00634765625  1.3669423828125 1.740044921875  0.4332783203125 4.1808330078125  L 1.437439453125 4.1808330078125  C 1.709830078125 3.5870224609375  2.088455078125 3.040095703125  2.56419921875 2.564326171875  C 3.615447265625 1.5130146484375  5.0130869140625 0.9340068359375  6.49964453125 0.9340068359375  C 7.9864052734375 0.9340068359375  9.38422265625 1.5130146484375  10.4355849609375 2.5643515625  C 11.48697265625 3.6156884765625  12.0659931640625 5.01337890625  12.0659931640625 6.5  C 12.0659931640625 7.98672265625  11.4869853515625 9.3844892578125  10.4356357421875 10.435775390625  C 9.384298828125 11.4870361328125  7.9864306640625 12.0659931640625  6.49964453125 12.0659931640625  C 5.0130361328125 12.0659931640625  3.615396484375 11.4870361328125  2.564173828125 10.43580078125  C 2.0883916015625 9.9600185546875  1.7097666015625 9.413041015625  1.4373251953125 8.8191669921875  L 0.4332275390625 8.8191669921875  C 1.366853515625 11.260107421875  3.730669921875 12.99365234375  6.4996953125 12.99365234375  C 10.086095703125 12.99365234375  12.99365234375 10.0864384765625  12.99365234375 6.5  Z M 6.5795869140625 6.9638359375  L 5.07553515625 8.4678876953125  L 5.7314892578125 9.123841796875  L 8.3553310546875 6.5  L 5.7314892578125 3.876158203125  L 5.075509765625 4.532125  L 6.5795869140625 6.0361640625  L 0.00634765625 6.0361640625  L 0.00634765625 6.9638359375  L 6.5795869140625 6.9638359375  Z " fill-rule="nonzero" fill="#858f9e" stroke="none" transform="matrix(1 0 0 1 1082 343 )" />
  </g>
</svg>