<?xml version="1.0" encoding="utf-8"?>
<svg version="1.1" xmlns:xlink="http://www.w3.org/1999/xlink" width="15px" height="17px" xmlns="http://www.w3.org/2000/svg">
  <g transform="matrix(1 0 0 1 -980 -341 )">
    <path d="M 10.4353515625 10.91396484375  C 10.48173828125 10.941796875  10.53740234375 10.9455078125  10.58564453125 10.91953125  C 11.03466796875 10.6783203125  11.5486328125 10.541015625  12.09599609375 10.541015625  L 12.0978515625 10.541015625  C 12.153515625 10.541015625  12.1794921875 10.47421875  12.138671875 10.437109375  C 11.5671875 9.925  10.921484375 9.51494140625  10.21455078125 9.2162109375  C 10.20712890625 9.2125  10.19970703125 9.21064453125  10.19228515625 9.20693359375  C 11.34453125 8.3701171875  12.094140625 7.01005859375  12.094140625 5.4755859375  C 12.094140625 2.93359375  10.03828125 0.8740234375  7.50185546875 0.8740234375  C 4.9654296875 0.8740234375  2.91142578125 2.93359375  2.91142578125 5.4755859375  C 2.91142578125 7.01005859375  3.66103515625 8.3701171875  4.81513671875 9.20693359375  C 4.80771484375 9.21064453125  4.80029296875 9.2125  4.79287109375 9.2162109375  C 3.9634765625 9.56689453125  3.21943359375 10.0697265625  2.579296875 10.71171875  C 1.93916015625 11.35185546875  1.43818359375 12.09775390625  1.0875 12.92900390625  C 0.74423828125 13.74169921875  0.560546875 14.6044921875  0.5419921875 15.49140625  C 0.54013671875 15.57490234375  0.60693359375 15.6435546875  0.6904296875 15.6435546875  L 1.80185546875 15.6435546875  C 1.881640625 15.6435546875  1.9484375 15.57861328125  1.95029296875 15.498828125  C 1.98740234375 14.06640625  2.5607421875 12.72490234375  3.57568359375 11.70810546875  C 4.6240234375 10.6560546875  6.0193359375 10.0771484375  7.5037109375 10.0771484375  C 8.55576171875 10.0771484375  9.56513671875 10.36845703125  10.4353515625 10.91396484375  Z M 9.75625 7.7318359375  C 9.15322265625 8.33486328125  8.353515625 8.6669921875  7.5037109375 8.6669921875  C 6.65390625 8.6669921875  5.85419921875 8.33486328125  5.251171875 7.7318359375  C 4.65 7.12880859375  4.31787109375 6.32724609375  4.31787109375 5.4755859375  C 4.31787109375 4.62392578125  4.65 3.82236328125  5.251171875 3.2193359375  C 5.85234375 2.61630859375  6.65205078125 2.2841796875  7.5037109375 2.2841796875  C 8.35537109375 2.2841796875  9.15322265625 2.61630859375  9.75625 3.2193359375  C 10.357421875 3.82236328125  10.68955078125 4.62392578125  10.68955078125 5.4755859375  C 10.68955078125 6.32724609375  10.357421875 7.12880859375  9.75625 7.7318359375  Z M 14.4765625 13.2314453125  C 14.4765625 13.1498046875  14.409765625 13.0830078125  14.328125 13.0830078125  L 12.76953125 13.0830078125  L 12.76953125 11.5244140625  C 12.76953125 11.4427734375  12.702734375 11.3759765625  12.62109375 11.3759765625  L 11.58203125 11.3759765625  C 11.500390625 11.3759765625  11.43359375 11.4427734375  11.43359375 11.5244140625  L 11.43359375 13.0830078125  L 9.875 13.0830078125  C 9.793359375 13.0830078125  9.7265625 13.1498046875  9.7265625 13.2314453125  L 9.7265625 14.2705078125  C 9.7265625 14.3521484375  9.793359375 14.4189453125  9.875 14.4189453125  L 11.43359375 14.4189453125  L 11.43359375 15.9775390625  C 11.43359375 16.0591796875  11.500390625 16.1259765625  11.58203125 16.1259765625  L 12.62109375 16.1259765625  C 12.702734375 16.1259765625  12.76953125 16.0591796875  12.76953125 15.9775390625  L 12.76953125 14.4189453125  L 14.328125 14.4189453125  C 14.409765625 14.4189453125  14.4765625 14.3521484375  14.4765625 14.2705078125  L 14.4765625 13.2314453125  Z " fill-rule="nonzero" fill="#f59a23" stroke="none" transform="matrix(1 0 0 1 980 341 )" />
  </g>
</svg>