<?xml version="1.0" encoding="utf-8"?>
<svg version="1.1" xmlns:xlink="http://www.w3.org/1999/xlink" width="16px" height="16px" xmlns="http://www.w3.org/2000/svg">
  <g transform="matrix(1 0 0 1 -1492 -342 )">
    <path d="M 15.98078125 5.4595  C 15.980765625 4.991421875  15.603578125 4.610328125  15.14040625 4.608375  L 15.14040625 1.712015625  C 15.14040625 1.242  14.761265625 0.859921875  14.295140625 0.859921875  L 6.598890625 0.859921875  L 6.45134375 0.514  C 6.317453125 0.201296875  6.012578125 0  5.675453125 0  L 0.845265625 0  C 0.379140625 0  0 0.382078125  0 0.851125  L 0 14.23553125  C 0 14.705546875  0.379140625 15.087625  0.845265625 15  L 15.1365 15  C 15.601640625 15.087625  15.98078125 14.705546875  15.98078125 14.23553125  L 15.98078125 5.4595  Z M 14.01078125 1.98953125  L 14.01078125 4.608375  L 7.476390625 4.608375  L 6.922078125 1.98953125  L 14.01078125 1.98953125  Z M 14.85115625 5.738015625  L 14.85115625 14  L 1.129625 14  L 1.129625 1.129625  L 5.485890625 1.129625  L 5.685234375 1.597453125  L 6.466984375 5.290453125  C 6.471140625 5.310671875  6.482859375 5.326671875  6.48921875 5.34584375  C 6.4985 5.374296875  6.50828125 5.4008125  6.521703125 5.427078125  C 6.541 5.4651875  6.564703125 5.49846875  6.591578125 5.53053125  C 6.6081875 5.5504375  6.62309375 5.570234375  6.642265625 5.587640625  C 6.67646875 5.618734375  6.7149375 5.642234375  6.7555 5.664109375  C 6.77540625 5.674859375  6.792625 5.688234375  6.813640625 5.696546875  C 6.878140625 5.721890625  6.94653125 5.738015625  7.018109375 5.738015625  L 14.01078125 5.738015625  L 14.57559375 5.738015625  L 14.85115625 5.738015625  Z " fill-rule="nonzero" fill="#f59a23" stroke="none" transform="matrix(1 0 0 1 1492 342 )" />
  </g>
</svg>