<?xml version="1.0" encoding="utf-8"?>
<svg version="1.1" xmlns:xlink="http://www.w3.org/1999/xlink" width="16px" height="16px" xmlns="http://www.w3.org/2000/svg">
  <g transform="matrix(1 0 0 1 -1320 -341 )">
    <path d="M 7.12109375 9.23046875  L 7.12109375 4.73046875  L 8.38671875 4.73046875  L 8.38671875 7.96484375  L 10.3203125 7.96484375  L 10.3203125 9.23046875  L 7.12109375 9.23046875  Z M 14.738609375 2.56178515625  L 15.94025 2.94766015625  L 14.85705078125 6.32195703125  L 11.16916015625 5.01737890625  L 11.590015625 3.82733984375  L 13.2058671875 4.39898046875  C 12.0273857585734 2.68605445923974  10.0791567933934 1.66547024647361  8 1.671875  C 4.510671875 1.671875  1.671875 4.510671875  1.671875 8  C 1.671875 11.489328125  4.510671875 14.328125  8 14.328125  C 11.489328125 14.328125  14.328125 11.489328125  14.328125 8  L 15.59375 8  C 15.5937500000014 12.1939077672592  12.193912319029 15.5937454482316  8.00000000000136 15.5937454482316  C 5.98601339559306 15.5937454482316  4.05451434504735 14.7936928253444  2.63041015625 13.36958984375  C 1.20682591515561 11.9454517979327  0.407111154833073 10.0142384647247  0.407111154833073 8.00059468663571  C 0.407111154833073 3.80633287491487  3.80723215561223 0.406211874135709  8.00149396733307 0.406211874135709  C 9.42917676498391 0.406211874135709  10.8279465953779 0.808648217499429  12.03734375 1.56735546875  C 12.9548110599392 2.14457007732225  13.7385788392742 2.91087498365115  14.33631640625 3.81510546875  L 14.738609375 2.56178515625  Z " fill-rule="nonzero" fill="#f59a23" stroke="none" transform="matrix(1 0 0 1 1320 341 )" />
  </g>
</svg>