<?xml version="1.0" encoding="utf-8"?>
<svg version="1.1" xmlns:xlink="http://www.w3.org/1999/xlink" width="16px" height="16px" xmlns="http://www.w3.org/2000/svg">
  <g transform="matrix(1 0 0 1 -979 -434 )">
    <path d="M 4.1166666796875 3.42111111328125  C 4.11666666015625 3.78111111328125  4.40666666015625 4.07111111328125  4.765555546875 4.07111111328125  C 5.12444443359375 4.07111111328125  5.41444443359375 3.78111111328125  5.41444443359375 3.4222222265625  L 5.414444453125 0.824444453125  C 5.414444453125 0.46555556640625  5.12333333984375 0.17555556640625  4.76555556640625 0.17555556640625  C 4.4066666796875 0.17555556640625  4.1166666796875 0.46555556640625  4.1166666796875 0.824444453125  L 4.1166666796875 3.42111111328125  Z M 7.3622222265625 3.42111111328125  C 7.3622222265625 3.78111111328125  7.65333333984375 4.07111111328125  8.01111111328125 4.07111111328125  C 8.37 4.07111111328125  8.66 3.78111111328125  8.66 3.4222222265625  L 8.66 0.824444453125  C 8.66 0.46555556640625  8.37 0.17555556640625  8.01111111328125 0.17555556640625  C 7.6522222265625 0.17555556640625  7.3622222265625 0.4666666796875  7.3622222265625 0.824444453125  L 7.3622222265625 3.42111111328125  Z M 6.064444453125 2.7177777734375  L 6.064444453125 1.42  L 6.71333333984375 1.42  L 6.71333333984375 2.7177777734375  L 6.064444453125 2.7177777734375  Z M 9.31111111328125 2.7177777734375  L 9.31111111328125 1.42  L 9.96 1.42  L 9.96 2.7177777734375  L 9.31111111328125 2.7177777734375  Z M 15.8 13.8411111132813  L 15.8 13.8422222265625  L 15.8 3.2977777734375  C 15.8022222265625 2.22111111328125  14.9277777734375 1.35  13.8533333398438 1.35  L 12.555555546875 1.35  L 12.555555546875 2.6477777734375  L 13.8533333203125 2.6477777734375  C 14.21111109375 2.6477777734375  14.5044444335938 2.93888888671875  14.5044444335938 3.29666666015625  L 14.5044444335938 13.8422222070313  C 14.5044444335938 14.1999999804687  14.21111109375 14.4922222070313  13.8533333203125 14.4922222070313  L 2.16888888671875 14.4922222265625  C 1.8122222265625 14.4922222265625  1.52 14.2  1.52 13.8422222265625  L 1.51 13.8422222265625  L 1.52 3.2977777734375  C 1.52 2.94  1.81111111328125 2.64888888671875  2.16888888671875 2.64888888671875  L 3.46666666015625 2.64888888671875  L 3.46666666015625 1.35  L 2.16888888671875 1.35  C 1.094444453125 1.35  0.2222222265625 2.22111111328125  0.2222222265625 3.2977777734375  L 0.2222222265625 13.8422222265625  C 0.2222222265625 14.9211111132812  1.094444453125 15.79  2.16888888671875 15.79  L 13.8533333398438 15.79  C 14.8966666796875 15.79  15.7411111132813 14.9711111132812  15.7922222265625 13.9388888867188  C 15.7933333398438 13.9333333398437  15.8 13.9266666601563  15.8 13.9211111132812  L 15.8 13.8633333398438  C 15.8 13.8555555664062  15.8022222265625 13.8488888867188  15.8022222265625 13.8411111132813  L 15.8 13.8411111132813  Z M 10.6088888867188 3.42111111328125  C 10.6088888867188 3.78111111328125  10.8966666601563 4.07111111328125  11.2577777734375 4.07111111328125  C 11.615555546875 4.07111111328125  11.9066666601563 3.78111111328125  11.9066666601563 3.4222222265625  L 11.9066666601563 0.824444453125  C 11.9066666601563 0.46555556640625  11.615555546875 0.17555556640625  11.2577777734375 0.17555556640625  C 10.9 0.17555556640625  10.6088888867188 0.46555556640625  10.6088888867188 0.824444453125  L 10.6088888867188 3.42111111328125  Z M 3.45666666015625 6.02888888671875  C 3.45666666015625 6.38666666015625  3.74666666015625 6.6777777734375  4.105555546875 6.6777777734375  L 11.895555546875 6.6777777734375  C 12.25111109375 6.6777777734375  12.5444444335937 6.38666666015625  12.5444444335937 6.02888888671875  C 12.5444444335937 5.67  12.25111109375 5.38  11.895555546875 5.38  L 4.105555546875 5.38  C 3.74666666015625 5.38  3.45666666015625 5.67  3.45666666015625 6.02888888671875  Z M 12.5444444335937 9.2322222265625  C 12.5444444335937 8.874444453125  12.2511111132812 8.58333333984375  11.895555546875 8.58333333984375  L 4.105555546875 8.58333333984375  C 3.74666666015625 8.58333333984375  3.45666666015625 8.874444453125  3.45666666015625 9.2322222265625  C 3.45666666015625 9.59  3.74666666015625 9.88111111328125  4.105555546875 9.88111111328125  L 11.895555546875 9.88111111328125  C 12.25111109375 9.88111111328125  12.5444444335937 9.59  12.5444444335937 9.2322222265625  Z M 12.5444444335937 12.5588888867188  C 12.544444453125 12.2022222265625  12.2511111132812 11.9122222265625  11.895555546875 11.9122222265625  L 4.105555546875 11.9122222265625  C 3.74666666015625 11.9122222265625  3.45666666015625 12.2033333398438  3.45666666015625 12.5588888867188  C 3.45666666015625 12.9177777734375  3.74666666015625 13.21  4.105555546875 13.21  L 11.895555546875 13.21  C 12.25111109375 13.21  12.5444444335937 12.9177777734375  12.5444444335937 12.5588888867188  Z " fill-rule="nonzero" fill="#f59a23" stroke="none" transform="matrix(1 0 0 1 979 434 )" />
  </g>
</svg>