<?xml version="1.0" encoding="utf-8"?>
<svg version="1.1" xmlns:xlink="http://www.w3.org/1999/xlink" width="9px" height="9px" xmlns="http://www.w3.org/2000/svg">
  <g transform="matrix(1 0 0 1 -1152 -437 )">
    <path d="M 8.0494306640625 8.4849228515625  C 8.049779296875 6.8912724609375  6.9963935546875 5.538560546875  5.5494677734375 5.086333984375  C 6.435443359375 4.682650390625  7.0529384765625 3.7912294921875  7.0529384765625 2.75344921875  C 7.0529384765625 1.3380498046875  5.90495703125 0.1904501953125  4.4895576171875 0.1904501953125  C 3.0734609375 0.1904501953125  1.925828125 1.3380498046875  1.925828125 2.75344921875  C 1.925828125 3.790880859375  2.54294140625 4.6823017578125  3.429298828125 5.086333984375  C 1.982373046875 5.538560546875  0.929335937500001 6.890890625  0.929335937500001 8.4849228515625  C 0.929335937500001 8.6853203125  1.0916826171875 8.84728515625  1.2916982421875 8.84728515625  C 1.4917138671875 8.84728515625  1.654060546875 8.6853203125  1.654060546875 8.4849228515625  C 1.654060546875 6.921703125  2.9259560546875 5.6498076171875  4.489208984375 5.6498076171875  C 6.052810546875 5.6498076171875  7.3247060546875 6.921703125  7.3247060546875 8.4849228515625  C 7.3247060546875 8.6853203125  7.4866708984375 8.84728515625  7.687068359375 8.84728515625  C 7.88744921875 8.84728515625  8.0494306640625 8.6853203125  8.0494306640625 8.4849228515625  Z M 4.489939453125 4.5931513671875  C 3.4756669921875 4.5931513671875  2.6509345703125 3.7680537109375  2.6509345703125 2.7537978515625  C 2.6509345703125 1.7399072265625  3.4756669921875 0.9155234375  4.489939453125 0.9155234375  C 5.503830078125 0.9155234375  6.3285625 1.7399072265625  6.3285625 2.7537978515625  C 6.3285625 3.7680537109375  5.503830078125 4.5931513671875  4.489939453125 4.5931513671875  Z " fill-rule="nonzero" fill="#f59a23" stroke="none" transform="matrix(1 0 0 1 1152 437 )" />
  </g>
</svg>