<?xml version="1.0" encoding="utf-8"?>
<svg version="1.1" xmlns:xlink="http://www.w3.org/1999/xlink" width="15px" height="15px" xmlns="http://www.w3.org/2000/svg">
  <g transform="matrix(1 0 0 1 -1149 -434 )">
    <path d="M 14.9252646484375 7.5152568359375  C 14.9252646484375 11.61539453125  11.5896953125 14.950947265625  7.4895576171875 14.950947265625  C 3.38978515625 14.950947265625  0.0542324218749992 11.61539453125  0.0542324218749992 7.5152568359375  C 0.0542324218749992 3.4158330078125  3.3898017578125 0.079898437499998  7.4895576171875 0.079898437499998  C 11.5896953125 0.079898437499998  14.9252646484375 3.4154677734375  14.9252646484375 7.5152568359375  Z M 14.2367646484375 7.515240234375  C 14.2367646484375 3.795228515625  11.209951171875 0.7687470703125  7.4895576171875 0.768747070312499  C 3.7691806640625 0.768747070312499  0.742715820312499 3.795228515625  0.742715820312499 7.515240234375  C 0.742715820312499 11.235251953125  3.7691806640625 14.2620654296875  7.4895576171875 14.2620654296875  C 11.209951171875 14.2620654296875  14.2367646484375 11.235251953125  14.2367646484375 7.515240234375  Z " fill-rule="nonzero" fill="#f59a23" stroke="none" transform="matrix(1 0 0 1 1149 434 )" />
  </g>
</svg>