<?xml version="1.0" encoding="utf-8"?>
<svg version="1.1" xmlns:xlink="http://www.w3.org/1999/xlink" width="109px" height="109px" xmlns="http://www.w3.org/2000/svg">
  <g transform="matrix(1 0 0 1 -71 -308 )">
    <path d="M 72 321  A 12 12 0 0 1 84 309 L 167 309  A 12 12 0 0 1 179 321 L 179 404  A 12 12 0 0 1 167 416 L 84 416  A 12 12 0 0 1 72 404 L 72 321  Z " fill-rule="nonzero" fill="#ffffff" stroke="none" />
    <path d="M 71.5 321  A 12.5 12.5 0 0 1 84 308.5 L 167 308.5  A 12.5 12.5 0 0 1 179.5 321 L 179.5 404  A 12.5 12.5 0 0 1 167 416.5 L 84 416.5  A 12.5 12.5 0 0 1 71.5 404 L 71.5 321  Z " stroke-width="1" stroke="#858f9e" fill="none" stroke-opacity="0.294117647058824" />
  </g>
</svg>