<?xml version="1.0" encoding="utf-8"?>
<svg version="1.1" xmlns:xlink="http://www.w3.org/1999/xlink" width="10px" height="9px" xmlns="http://www.w3.org/2000/svg">
  <g transform="matrix(1 0 0 1 -893 78 )">
    <path d="M 9.22336667285156 4.6848  C 9.22336667285156 7.01356667285156  7.32843334570313 8.9085  4.99966667285156 8.9085  C 2.6709 8.9085  0.775966672851562 7.01356667285156  0.775966672851562 4.6848  C 0.775966672851562 2.35603332714844  2.6709 0.461099999999999  4.99966667285156 0.461099999999999  C 7.32843334570313 0.461099999999999  9.22336667285156 2.35603332714844  9.22336667285156 4.6848  Z M 8.179 4.6848  C 8.179 2.93173332714844  6.75273332714844 1.50546667285156  4.99966667285156 1.50546667285156  C 3.2466 1.50546667285156  1.82033334570313 2.93173334570312  1.82033332714844 4.6848  C 1.82033332714844 6.43786667285156  3.2466 7.86413332714844  4.99966667285156 7.86413332714844  C 6.75273334570313 7.86413332714844  8.179 6.43786665429687  8.179 4.6848  Z " fill-rule="nonzero" fill="#f59a23" stroke="none" transform="matrix(1 0 0 1 893 -78 )" />
  </g>
</svg>