<?xml version="1.0" encoding="utf-8"?>
<svg version="1.1" xmlns:xlink="http://www.w3.org/1999/xlink" width="6px" height="6px" xmlns="http://www.w3.org/2000/svg">
  <g transform="matrix(1 0 0 1 -899 69 )">
    <path d="M 5.24306667285156 2.50516667285156  C 5.24306667285156 3.88266667285156  4.12206667285156 5.00366667285156  2.74456667285156 5.00366667285156  C 1.36706667285156 5.00366667285156  0.246066672851562 3.88266667285156  0.246066672851562 2.50516667285156  C 0.246066672851562 1.12766667285156  1.36706667285156 0.00666667285156208  2.74456667285156 0.00666667285156208  C 4.12206667285156 0.00666667285156208  5.24306667285156 1.12766667285156  5.24306667285156 2.50516667285156  Z M 4.2956 2.50453332714844  C 4.2956 1.64953330859375  3.59956667285156 0.9535  2.74456667285156 0.9535  C 1.88956667285156 0.9535  1.19353334570312 1.64953332714844  1.19353332714844 2.50453332714844  C 1.19353330859375 3.35953332714844  1.88956665429687 4.05556665429688  2.74456667285156 4.05556667285156  C 3.59956669140625 4.05556669140625  4.2956 3.35953334570313  4.2956 2.50453332714844  Z " fill-rule="nonzero" fill="#f59a23" stroke="none" transform="matrix(1 0 0 1 899 -69 )" />
  </g>
</svg>