<?xml version="1.0" encoding="utf-8"?>
<svg version="1.1" xmlns:xlink="http://www.w3.org/1999/xlink" width="7px" height="7px" xmlns="http://www.w3.org/2000/svg">
  <g transform="matrix(1 0 0 1 -898 70 )">
    <path d="M 4.5565 1.36893332714844  C 4.55713332714844 1.4234  4.5128 1.46773332714844  4.4577 1.46773332714844  L 3.0764 1.46773332714844  C 3.02193332714844 1.46773332714844  2.9776 1.4234  2.9776 1.36893332714844  L 2.9776 0.654533327148439  C 2.9776 0.600066654296876  3.02193332714844 0.55573332714844  3.0764 0.55573332714844  L 4.4577 0.55573332714844  C 4.51216667285156 0.55573332714844  4.5565 0.600066654296876  4.5565 0.654533327148439  L 4.5565 1.36893332714844  Z M 2.29803332714844 1.72803332714844  C 2.34553332714844 1.7559  2.362 1.8167  2.33413332714844 1.86356667285156  L 1.64316667285156 3.05993332714844  C 1.61593334570313 3.10743332714843  1.55513334570312 3.12326665429687  1.50763332714844 3.09603332714844  L 0.888866672851563 2.73883332714844  C 0.841366672851565 2.7116  0.825533345703127 2.6508  0.852766672851564 2.6033  L 1.54373332714844 1.40693332714844  C 1.57096665429687 1.35943332714844  1.63176665429688 1.3436  1.67926667285156 1.37083332714844  L 2.29803332714844 1.72803332714844  Z M 1.48293332714844 3.86933332714844  C 1.53043332714844 3.84146665429687  1.5906 3.85793332714844  1.61846667285156 3.90543332714844  L 2.30943332714844 5.1018  C 2.33666665429687 5.1493  2.32083332714844 5.20946667285156  2.27333332714844 5.23733332714844  L 1.65456667285156 5.59453332714844  C 1.60706667285156 5.62176665429687  1.5469 5.60593332714844  1.51903332714844 5.55843332714844  L 0.828066672851563 4.36206667285156  C 0.800833345703126 4.31456667285156  0.816666672851561 4.2544  0.864166672851562 4.22653332714844  L 1.48293332714844 3.86933332714844  Z M 3.02826667285156 5.5464  L 4.40956667285156 5.5464  C 4.46403334570313 5.5464  4.50836667285156 5.59073332714844  4.50836667285156 5.6452  L 4.50836667285156 6.3596  C 4.50836667285156 6.41406667285156  4.46403334570313 6.4584  4.40956667285156 6.4584  L 3.02826667285156 6.4584  C 2.9738 6.4584  2.92946667285156 6.41406667285156  2.92946667285156 6.3596  L 2.92946667285156 5.6452  C 2.92946461657158 5.59034866021403  2.97341533306559 5.54639794372001  3.02763128942314 5.54639794372001  Z M 5.19046667285156 5.28103332714844  C 5.14296667285156 5.2538  5.12713334570313 5.193  5.15436667285156 5.1455  L 5.84533332714844 3.94913332714844  C 5.87256665429687 3.90163332714844  5.93336665429688 3.8858  5.98086667285156 3.91303332714844  L 6.59963332714844 4.27023332714844  C 6.64713332714843 4.29746665429688  6.66296665429687 4.35826665429688  6.63573332714844 4.40576667285156  L 5.94476667285156 5.60213332714844  C 5.91753334570313 5.64963332714844  5.85673334570312 5.66546665429687  5.80923332714844 5.63823332714844  L 5.19046667285156 5.28103332714844  Z M 6.00556667285156 3.14036667285156  C 5.95806667285156 3.1676  5.8979 3.15176667285157  5.87003332714844 3.10426667285156  L 5.17906667285156 1.9079  C 5.15183334570312 1.8604  5.16766667285156 1.80023332714844  5.21516667285156 1.77236667285156  L 5.83393332714844 1.41516667285156  C 5.88143332714844 1.38793334570313  5.9416 1.40376667285156  5.96946667285156 1.45126667285156  L 6.66043332714844 2.64763332714844  C 6.68766665429687 2.69513332714844  6.67183332714844 2.7553  6.62433332714844 2.78316667285156  L 6.00556667285156 3.14036667285156  Z " fill-rule="nonzero" fill="#f59a23" stroke="none" transform="matrix(1 0 0 1 898 -70 )" />
  </g>
</svg>