<?xml version="1.0" encoding="utf-8"?>
<svg version="1.1" xmlns:xlink="http://www.w3.org/1999/xlink" width="19px" height="19px" xmlns="http://www.w3.org/2000/svg">
  <g transform="matrix(1 0 0 1 -674 -15 )">
    <path d="M 9.48575 8.14245  L 2.09665 0.75335  C 1.91953285635264 0.582284538784426  1.68291326139789 0.486673795441075  1.43667379544107 0.486673795441075  C 0.912003283101821 0.486673795441075  0.486673795441075 0.912003283101821  0.486673795441075 1.43667379544107  C 0.486673795441075 1.68291326139789  0.582284538784426 1.91953285635264  0.75335 2.09665  L 8.1415 9.48575  L 0.75335 16.87485  C 0.575009037246146 17.0530649267378  0.474807525748072 17.2948518969172  0.474807525748072 17.546975  C 0.474807525748072 18.0717518129333  0.900223187066671 18.4971674742519  1.425 18.4971674742519  C 1.676890326395 18.4971674742519  1.91847369339272 18.397150386956  2.09665 18.2191  L 9.48575 10.82905  L 16.87485 18.2191  C 17.0531086332334 18.3973586332334  17.2948792232712 18.49750329061  17.546975 18.49750329061  C 18.0719372791866 18.49750329061  18.49750329061 18.0719372791866  18.49750329061 17.546975  C 18.49750329061 17.2948792232712  18.3973586332334 17.0531086332334  18.2191 16.87485  L 10.82905 9.48575  L 18.2191 2.09665  C 18.397150386956 1.91847369339272  18.4971674742519 1.676890326395  18.4971674742519 1.425  C 18.4971674742519 0.900223187066671  18.0717518129333 0.474807525748071  17.546975 0.474807525748071  C 17.2948518969172 0.474807525748071  17.0530649267378 0.575009037246147  16.87485 0.75335  L 9.48575 8.1415  Z " fill-rule="nonzero" fill="#aaaaaa" stroke="none" transform="matrix(1 0 0 1 674 15 )" />
  </g>
</svg>