<?xml version="1.0" encoding="utf-8"?>
<svg version="1.1" xmlns:xlink="http://www.w3.org/1999/xlink" width="13px" height="13px" xmlns="http://www.w3.org/2000/svg">
  <g transform="matrix(1 0 0 1 -470 -201 )">
    <path d="M 12.2613636363636 3.93939393439276  C 12.2613636363636 2.85113636363636  11.4291666616655 2.01893938893821  10.3409090909091 2.01893938893821  L 9.70075757075639 2.01893938893821  L 9.70075757075639 1.37878788378906  C 9.70075757075639 0.994696974698153  9.4446969596946 0.738636363636364  9.06060606560725 0.738636363636364  C 8.67651517151989 0.738636363636364  8.42045454545455 0.994696974698153  8.42045454545455 1.37878788378906  L 8.42045454545455 2.01893938893821  L 4.57954545454546 2.01893938893821  L 4.57954545454546 1.37878788378906  C 4.57954545454546 0.994696974698153  4.32348484348366 0.738636363636364  3.93939393439276 0.738636363636364  C 3.55530302530185 0.738636363636364  3.29924241424006 0.994696974698153  3.29924242924361 1.37878788378906  L 3.29924242924361 2.01893938893821  L 2.65909090909091 2.01893938893821  C 1.57083333833452 2.01893938893821  0.738636363636364 2.85113636363636  0.738636363636364 3.93939393439276  L 0.738636363636364 10.3409090909091  C 0.738636363636364 11.4291666616655  1.57083333833452 12.2613636363636  2.65909090909091 12.2613636363636  L 10.3409090909091 12.2613636363636  C 11.4291666616655 12.2613636363636  12.2613636363636 11.4291666616655  12.2613636363636 10.3409090909091  L 12.2613636363636 3.93939393439276  Z M 10.9810606110618 6.5  L 10.9810606110618 10.3409090909091  C 10.9810606110618 10.725  10.725 10.9810606110618  10.3409090909091 10.9810606110618  L 2.65909090909091 10.9810606110618  C 2.275 10.9810606110618  2.01893938893821 10.725  2.01893938893821 10.3409090909091  L 2.01893938893821 6.5  L 10.9810606110618 6.5  Z M 10.9810606110618 5.21969697469815  L 2.01893938893821 5.21969697469815  L 2.01893938893821 3.93939393439276  C 2.01893938893821 3.55530302530185  2.275 3.29924241424006  2.65909090909091 3.29924242924361  L 3.29924242924361 3.29924242924361  L 3.29924242924361 3.93939393439276  C 3.29924242924361 4.32348484348366  3.5553030403054 4.57954545454546  3.93939393439276 4.57954545454546  C 4.32348482848012 4.57954545454546  4.57954545454546 4.32348484348366  4.57954545454546 3.93939393439276  L 4.57954545454546 3.29924242924361  L 8.42045454545455 3.29924242924361  L 8.42045454545455 3.93939393439276  C 8.42045454545455 4.32348484348367  8.67651515651633 4.57954545454546  9.06060606560724 4.57954545454546  C 9.44469697469815 4.57954545454546  9.70075758575994 4.32348484348367  9.70075757075639 3.93939393439276  L 9.70075757075639 3.29924242924361  L 10.3409090909091 3.29924242924361  C 10.725 3.29924242924361  10.9810606110618 3.5553030403054  10.9810606110618 3.93939393439276  L 10.9810606110618 5.21969697469815  Z " fill-rule="nonzero" fill="#bbc3c9" stroke="none" transform="matrix(1 0 0 1 470 201 )" />
  </g>
</svg>