<?xml version="1.0" encoding="utf-8"?>
<svg version="1.1" xmlns:xlink="http://www.w3.org/1999/xlink" width="18px" height="11px" xmlns="http://www.w3.org/2000/svg">
  <g transform="matrix(1 0 0 1 -469 -288 )">
    <path d="M 8.91666666015625 10.8333333398438  C 7.75 10.9166666796875  6.5833333203125 10.6666666796875  5.5 10.25  L 6.16666666015625 9.58333333984375  C 7 9.83333333984375  8 10  9 10  C 12.1666666601562 10  14.5833333398438 8.66666666015625  16.3333333398437 5.83333333984375  C 15.4166666796875 4.4166666796875  14.3333333398437 3.33333333984375  13.0833333398437 2.66666666015625  L 13.6666666601562 2.08333333984375  C 15.0833333203125 2.9166666796875  16.25 4.1666666796875  17.25 5.83333333984375  C 15.3333333398438 9.1666666796875  12.5 10.8333333398438  8.91666666015625 10.8333333398438  Z M 3.91666666015625 8.41666666015625  L 3.25 9  C 2.25 8.25  1.41666666015625 7.16666666015625  0.66666666015625 5.91666666015625  C 2.5833333203125 2.5833333203125  5.41666666015625 0.916666660156251  9 0.916666660156251  C 9.75 0.916666660156251  10.5 1  11.1666666601562 1.16666666015625  L 10.5 1.83333333984375  C 10 1.75  9.58333333984375 1.75  9 1.75  C 5.83333333984375 1.75  3.41666666015625 3.08333333984375  1.66666666015625 5.91666666015625  C 2.3333333203125 6.91666666015625  3.0833333203125 7.75  3.91666666015625 8.41666666015625  Z M 8.91666666015625 8.5  C 8.5833333203125 8.41666666015625  8.16666666015625 8.25  7.75 8.08333333984375  L 8.33333333984375 7.5  C 8.5 7.58333333984375  8.75 7.58333333984375  8.91666666015625 7.58333333984375  C 9.8333333203125 7.58333333984375  10.5833333203125 6.83333333984375  10.5833333398438 5.91666666015625  C 10.5833333398438 5.66666666015625  10.5833333398438 5.5  10.5 5.33333333984375  L 11.0833333398438 4.75  C 11.3333333398438 5.08333333984375  11.4166666796875 5.5  11.4166666601563 6  C 11.4166666601563 7.41666666015625  10.3333333203125 8.5  8.91666666015625 8.5  Z M 8.91666666015625 3.33333333984375  C 8.91666666015625 3.4166666796875  6.5 5.75  6.5 5.75  C 6.58333333984375 4.41666666015625  7.58333333984375 3.41666666015625  8.91666666015625 3.33333333984375  Z M 3.25 10.1666666601563  L 13.3333333398438 0.16666666015625  L 13.9166666601563 0.75  L 3.91666666015625 10.75  L 3.25 10.1666666601563  Z " fill-rule="nonzero" fill="#7f7f7f" stroke="none" transform="matrix(1 0 0 1 469 288 )" />
  </g>
</svg>