<?xml version="1.0" encoding="utf-8"?>
<svg version="1.1" xmlns:xlink="http://www.w3.org/1999/xlink" width="12px" height="13px" xmlns="http://www.w3.org/2000/svg">
  <g transform="matrix(1 0 0 1 -644 -122 )">
    <path d="M 8.690666671875 0.831999615996695  C 8.939 0.583999730459218  9.34933334375 0.591999726766879  9.611333328125 0.853999605842761  L 11.025666671875 2.26833228119291  C 11.286 2.52866548916304  11.296666671875 2.93999864306524  11.048 3.18899852814118  L 4.084666671875 10.1523286423924  C 3.960666671875 10.2759952571899  3.723666671875 10.4139951934971  3.55 10.4613284997757  L 1.304666671875 11.0746615604464  C 0.962333343750002 11.1683281890902  0.756000000000002 10.9636616116776  0.842666671875002 10.6223284254674  L 1.424666671875 8.32899615581306  C 1.468 8.15799623473682  1.60533334375 7.9173296739397  1.727666671875 7.79499640227672  L 8.691 0.831666288025538  Z M 9.162333328125 1.30333272658137  L 2.199 8.26666285645754  C 2.153666671875 8.31199616365929  2.072333328125 8.45532944125486  2.056333328125 8.51699606904309  L 1.601333328125 10.3103285694687  L 3.350666671875 9.83266213368209  C 3.42 9.8136621424514  3.563666671875 9.73032885278826  3.613333328125 9.68066220383654  L 10.576666671875 2.71733207396036  L 9.162333328125 1.30333272658137  Z M 8.668666671875 1.79666584263709  L 10.083 3.21099851798724  L 9.611333328125 3.68266497216806  L 8.197333328125 2.26833228119291  L 8.668666671875 1.79699917060825  Z M 3.012 7.45366323169154  L 4.426 8.86799590704169  L 3.954666671875 9.33932901762636  L 2.540333328125 7.92532967024736  L 3.011666671875 7.45366323169154  Z M 0.666666671875 12.6666608256708  C 0.666666671875 12.4826609105946  0.814 12.3333276513933  1.002 12.3333276357683  L 11.331333328125 12.3333276357683  C 11.5154282461735 12.3333276357683  11.6646666640625 12.4825659847774  11.6646666640625 12.6666608178583  C 11.6646666640625 12.8507556509392  11.5154282461735 12.9999939999483  11.331333328125 12.9999939999483  L 1.002 13  C 1.00133334081565 12.9999979999738  1.00066667113054 13  0.999999999945998 13  C 0.815905086212217 13  0.666666671820999 12.8507616544886  0.666666671820999 12.6666668257225  Z " fill-rule="nonzero" fill="#7f7f7f" stroke="none" transform="matrix(1 0 0 1 644 122 )" />
  </g>
</svg>