<?xml version="1.0" encoding="utf-8"?>
<svg version="1.1" xmlns:xlink="http://www.w3.org/1999/xlink" width="83px" height="76px" xmlns="http://www.w3.org/2000/svg">
  <g transform="matrix(1 0 0 1 -86 -42 )">
    <path d="M 82.9989869785156 41.7214160116421  C 82.9986493046875 18.671830963848  64.4196190273437 0.00135811580881337  41.5040521669922 0.00135803431372549  C 18.5888230615234 0.00135803431372549  0.0094551103515625 18.671830963848  0.0094551103515625 41.7214160116422  C 0.0094551103515625 55.9126186139706  7.05961946875 68.4435748002451  17.8286966601563 75.9774947561275  C 19.9398964130859 68.5854936237745  25.2942122285156 63.0333443241422  32.5746769462891 60.5246406256127  C 32.7705336025391 60.4570763811275  32.9684163828125 60.3925678768382  33.1666368369141 60.3294174068627  C 33.3044118925781 60.285959004902  33.4411738457031 60.240803060049  33.5802995966797 60.1993817095588  C 33.9576428999414 60.086263036446  34.3375252778342 59.9818900079728  34.7196450546875 59.8863455098039  C 35.0294854493354 59.8086789886469  35.3406523978889 59.7364636275867  35.6530033173828 59.6697325171569  C 35.7738941142578 59.6442686403186  35.8968111162109 59.620841814951  36.0183773417969 59.5967360539216  C 36.3951474509856 59.5216871132836  36.7734359504526 59.4545609266345  37.1529952041016 59.3954014362745  C 37.4112424571681 59.3553454952369  37.6700474768371 59.3190132590166  37.9293305166016 59.2864159227941  C 38.0461691464844 59.2711375477941  38.1623324287109 59.2548406470588  38.2801840800781 59.2415994865196  C 38.6585279884274 59.1972648971049  39.037708940641 59.1604764585597  39.4175034140625 59.1312558572304  L 43.6098489765625 59.1312558572304  C 43.9931202001953 59.1601149828431  44.371663828125 59.1981410030637  44.7481814130859 59.2415994865196  C 44.8636692666016 59.2548407285539  44.9781441796875 59.2707981207108  45.0929566855469 59.2853973970588  C 45.4826284892556 59.3350299679166  45.8712685812166 59.3925334149763  46.2586414316406 59.4578728890931  C 46.518995734375 59.5023498167892  46.7766485654297 59.5505615018382  47.0332882939453 59.6018288455882  C 47.1426978564453 59.6235580465686  47.2524451738281 59.6442687218137  47.3615170625 59.6670163670343  C 48.0728713036409 59.8179151942405  48.7777613580689 59.9981251526823  49.4744051845703 60.207190651348  C 49.5797625800781 60.2387659270833  49.6830938515625 60.2727177628676  49.7874381445312 60.3056510729167  C 50.0282067978516 60.3813637677696  50.2669492460937 60.4591135140931  50.5033279775391 60.5412770349265  C 57.755089609375 63.0567710680147  63.0871183037109 68.5966977328431  65.1959543398437 75.9662906470588  C 75.9555762587891 68.4313521654412  82.9989869785156 55.9051491807598  82.9989869785156 41.7214160116421  Z M 61.0248827958984 40.1015722573529  C 60.6969917011719 50.6609433707108  52.0860523837891 59.1214098639706  41.5040521669922 59.1214098639706  C 30.7143763046875 59.1214098639706  21.9676880556641 50.3271964957108  21.9676881367187 39.4788949436274  C 21.9676881367187 39.3756812389706  21.9737664277344 39.2738256501225  21.9754548779297 39.1712910441176  C 21.8690844609375 26.7537340643382  33.4459014414062 19.2816065441176  41.5233002236328 19.8363801047794  L 41.5327553339844 19.8363801047794  C 49.8127644111328 19.2687048106618  61.7870354023438 27.1122658805147  61.0883674208984 40.0659227971814  C 61.0677686689453 40.0788245306373  61.0454815478516 40.0886705238971  61.0248827958984 40.1015722573529  Z " fill-rule="nonzero" fill="#d6e079" stroke="none" transform="matrix(1 0 0 1 86 42 )" />
  </g>
</svg>