<?xml version="1.0" encoding="utf-8"?>
<svg version="1.1" xmlns:xlink="http://www.w3.org/1999/xlink" width="15px" height="9px" xmlns="http://www.w3.org/2000/svg">
  <g transform="matrix(1 0 0 1 -121 -100 )">
    <path d="M 9.6365870625 0.425432906250002  C 9.52004953125 0.41073758203126  9.40419548437501 0.394675207031248  9.28765787109375 0.381346851562498  C 9.40453714453125 0.394675207031248  9.5203912734375 0.41073758203126  9.6365870625 0.425432906250002  Z M 0.452675437499998 0.739161585937502  C 0.329644558593749 0.763426019531252  0.205246710937498 0.78700688671875  0.082899398437501 0.812638289062502  C 0.205246710937498 0.78700688671875  0.329644640625 0.763425937500006  0.452675437499998 0.739161585937502  Z M 14.387286796875 1.45239877734375  C 14.28168534375 1.41924880078124  14.1767672929688 1.38507359765624  14.0704823554687 1.35329058984375  C 14.1771091171875 1.38507359765624  14.28168534375 1.41924880078125  14.387286796875 1.45239877734375  Z M 2.741732859375 0.381346851562498  C 2.62246130859375 0.394675207031238  2.50489846875 0.411079324218736  2.38665214453125 0.426458132812495  C 2.50489846875 0.411079242187501  2.62246130859375 0.394675125000003  2.741732859375 0.381346851562498  Z M 11.93213775 0.809562527343754  C 11.822093484375 0.786665144531252  11.71068225 0.765818214843748  11.5999544179688 0.743946140625006  C 11.7106821679688 0.765818296875004  11.8217517421875 0.786665226562498  11.93213775 0.809562527343754  Z M 6.24674524218749 8.3240137734375  C 6.16609170703125 8.32606430859375  6.08543808984375 8.33016529687499  6.00410098828125 8.33016537890625  C 5.92242214453125 8.33016537890625  5.841768609375 8.32572256640625  5.76077333203125 8.3240137734375  L 6.00410098828125 8.4945482109375  L 6.24674524218749 8.3240137734375  Z " fill-rule="nonzero" fill="#a0d9f6" stroke="none" transform="matrix(1 0 0 1 121 100 )" />
  </g>
</svg>