<?xml version="1.0" encoding="utf-8"?>
<svg version="1.1" xmlns:xlink="http://www.w3.org/1999/xlink" width="48px" height="24px" xmlns="http://www.w3.org/2000/svg">
  <g transform="matrix(1 0 0 1 -104 -101 )">
    <path d="M 47.9811059414063 16.4664106171875  C 45.8468623242188 9.04799179687501  40.4505923203125 3.47161824609377  33.1118018085938 0.939574910156246  C 33.1787852460938 0.962472292968748  33.245768765625 0.986736726562498  33.3124104609375 1.01031767578125  C 33.0893159549072 1.64221199466947  32.8018732128301 2.24950641488657  32.4546120585938 2.8226305546875  C 33.872542640625 4.9732782890625  33.519854203125 14.440844296875  31.3955214375 12.9467029101563  L 27.6950266992188 10.3504100742188  L 24.0041009882813 7.7445482109375  L 20.3036063320313 10.3504100742188  L 16.6126806210938 12.9467029101563  C 14.4883478554688 14.440844296875  14.1356594179688 4.97327820703125  15.55359 2.82297229687501  C 15.2079256252848 2.25190270052661  14.9214210059181 1.64705957244077  14.6985256171875 1.01783625000001  C 14.7880647773438 0.986053242187513  14.8772621132813 0.953586832031249  14.9671429335938 0.923170792968758  C 7.59861994921876 3.44837912109377  2.18013604687501 9.03671397656251  0.0435002343750046 16.4776884375  C 6.83924625000001 21.2065160976563  15.0973506445313 23.9808618632813  24.0041009882813 23.9808618632813  C 32.9180282460938 23.9808618632813  41.1822841640625 21.2020732851563  47.9811059414063 16.4664106171875  Z M 15.9852232617187 0.595430273437501  C 15.844421296875 0.637124050781253  15.7056697851562 0.682577156249994  15.5665766132812 0.726321468750001  C 15.706011609375 0.682235414062507  15.844421296875 0.637124132812499  15.9852232617187 0.595430273437501  Z " fill-rule="nonzero" fill="#a0d9f6" stroke="none" transform="matrix(1 0 0 1 104 101 )" />
  </g>
</svg>