<?xml version="1.0" encoding="utf-8"?>
<svg version="1.1" xmlns:xlink="http://www.w3.org/1999/xlink" width="19px" height="9px" xmlns="http://www.w3.org/2000/svg">
  <g transform="matrix(1 0 0 1 -118 -100 )">
    <path d="M 0.43735793990385 1.76749450781251  C 0.65418944894947 2.39697422583727  0.933363750380316 3.0019664350742  1.27049759495192 3.572972296875  C 1.54621290925481 3.1440730546875  1.88952507391827 3.00429631640625  2.30243204627404 3.30230436328125  L 5.89871863641827 5.89859719921874  L 9.26724032872596 8.324355515625  C 9.34615880408654 8.32606430859375  9.42474437980769 8.33050703906249  9.50432889423077 8.33050712109374  C 9.58358042908654 8.33050712109374  9.66216592487981 8.3264061328125  9.74075142067308 8.324355515625  L 13.1006154044471 5.89859719921874  L 16.7062256622596 3.30230436328125  C 17.1187996550481 3.00429631640624  17.4624447992789 3.14407297265625  17.7381601135817 3.5726305546875  C 18.0765794219908 2.99954078315358  18.3566549697665 2.39223962883978  18.573963765024 1.76031767578125  C 18.5090308311298 1.7367367265625  18.4437648377404 1.712472375  18.3784989242788 1.68957491015625  C 18.1454062734375 1.60687083984375  17.9099826856971 1.5282677578125  17.672561140625 1.45239877734375  C 17.5696674170673 1.41924880078124  17.4677726322115 1.38507359765624  17.363879890024 1.35329058984375  C 16.676877781085 1.14300891924673  15.9817933287055 0.961615036304416  15.2803646334135 0.809562527343754  C 15.173142015625 0.786665144531252  15.0649204591346 0.765818214843748  14.9566988227163 0.743946140625006  C 14.7036268383413 0.692683253906257  14.4495558353365 0.643812726562494  14.1928209158654 0.599043105468748  C 13.8108749041325 0.533002417310939  13.4276321794039 0.475119840342838  13.0433412403846 0.425432906250002  C 12.9301248305288 0.41073758203126  12.8172414002404 0.394675207031248  12.7033589513221 0.381346851562498  C 12.3299409992847 0.336720723598003  11.9556983919416 0.299690269070833  11.5808513401442 0.270277277343752  L 7.44678676322115 0.270277277343762  C 7.07227348280624 0.299706503342765  6.69836412937922 0.336736939807977  6.32527817067308 0.381346851562498  C 6.20939784435096 0.394675207031248  6.09484943629808 0.411079324218747  5.97930208954327 0.426458132812506  C 5.59357065446467 0.476394327219982  5.20888568005041 0.534504622401755  4.82549343990384 0.600751816406259  C 4.5813892665172 0.643493281949674  4.33784200213232 0.68951991897633  4.09491452884615 0.738819843750015  C 3.97503828786058 0.763084277343765  3.85383012860577 0.786665144531263  3.73461992668269 0.812296546875004  C 3.42493965745192 0.879621726562508  3.11825636418269 0.952415027343758  2.81423690745192 1.03033462500001  C 2.73498537259616 1.05083973046876  2.65573391766827 1.07134491796877  2.57681544230769 1.09253350781251  C 2.28001564793925 1.17143206595552  1.98460719824576 1.25574433207166  1.69073035757212 1.34543027343752  C 1.55353869951923 1.38712405078127  1.41867797836539 1.43223541406252  1.28281823858174 1.47632146875002  C 1.08752651121621 1.53956573840929  0.892937224403898 1.60507244623433  0.6990876328125 1.67282905078127  C 0.611511368990386 1.70358675000002  0.524601144230774 1.73605324218752  0.43735793990385 1.76749450781251  Z " fill-rule="nonzero" fill="#fefefe" stroke="none" transform="matrix(1 0 0 1 118 100 )" />
  </g>
</svg>