<?xml version="1.0" encoding="utf-8"?>
<svg version="1.1" xmlns:xlink="http://www.w3.org/1999/xlink" width="19px" height="11px" xmlns="http://www.w3.org/2000/svg">
  <g transform="matrix(1 0 0 1 -118 -104 )">
    <path d="M 17.7378271340144 0.560239579166654  C 17.4624447992789 0.140871431249989  17.1184666754808 0.00420084270832698  16.7058926826923 0.295586488541668  L 13.1002824248798 2.83418392812499  L 9.74041844110577 5.20603650416666  L 9.50399583473558 5.3727812875  L 13.1002824248798 7.920735109375  L 16.7058926826923 10.4593325489583  C 18.7757553774039 11.92027079375  19.1194005216346 2.66309506145833  17.7378271340144 0.560239579166654  Z M 9.26690734915866 5.20570235625  L 5.89838565685096 2.83418392812499  L 2.30209906670673 0.295586488541668  C 1.88952507391827 0.00420084270832698  1.5458799296875 0.14087135104167  1.27016461538462 0.560239579166664  C -0.111408772235577 2.66276091354167  0.23223637199519 11.9199366458333  2.30209906670673 10.4589984010417  L 5.89838565685096 7.92040096145833  L 9.50399583473558 5.37244713958333  L 9.26690734915866 5.20570235625  Z " fill-rule="nonzero" fill="#fa9689" stroke="none" transform="matrix(1 0 0 1 118 104 )" />
  </g>
</svg>