<?xml version="1.0" encoding="utf-8"?>
<svg version="1.1" xmlns:xlink="http://www.w3.org/1999/xlink" width="160px" height="160px" xmlns="http://www.w3.org/2000/svg">
  <defs>
    <filter x="512px" y="78px" width="160px" height="160px" filterUnits="userSpaceOnUse" id="filter1">
      <feOffset dx="0" dy="0" in="SourceAlpha" result="shadowOffsetInner" />
      <feGaussianBlur stdDeviation="10" in="shadowOffsetInner" result="shadowGaussian" />
      <feComposite in2="shadowGaussian" operator="atop" in="SourceAlpha" result="shadowComposite" />
      <feColorMatrix type="matrix" values="0 0 0 0 0.301960784313725  0 0 0 0 0.858823529411765  0 0 0 0 0.490196078431373  0 0 0 0.6 0  " in="shadowComposite" />
    </filter>
    <g id="widget2">
      <path d="M 119.964305484173 59.8604239239934  C 119.964305484173 93.0062092651439  93.1456441649779 119.903259262464  60 120  C 26.864691225754 119.998535596006  0.00399271460037198 93.1366499589492  0.00399271460037198 60.0013411523437  C 0.00399271460037198 26.8660323457383  26.864691225754 0.00414670868110534  60 0.00268230468749664  C 69.9718570160693 -0.0918212138525547  79.8057517466133 2.33630095577217  88.58759625 7.0613480859375  C 91.0490922225287 8.23055079796546  92.6177100191441 10.7122216720811  92.6177100191441 13.4372900023416  C 92.6177100191441 14.6125423722567  92.3242638008035 15.7691958773736  91.7639958984375 16.80230671875  C 89.9007223175221 20.1991247232568  85.6477886637642 21.4592532520009  82.2347970703125 19.625773125  C 75.4304444350664 15.8561748301356  67.7793945654424 13.8784497765372  60.0006359183686 13.8784497765372  C 34.6610785244209 13.8784497765372  14.1193085746186 34.4202197263395  14.1193085746186 59.7597771202872  C 14.1193085746186 85.0993345142349  34.6610785244209 105.641104464037  60.0006359183686 105.641104464037  C 85.2459076277223 105.641104464037  105.748411656731 85.2462629018926  105.88132734375 60.00134109375  C 105.897392125325 54.6332627943555  109.142857142857 53.1428571428572  111.142857142857 52.5714285714286  C 111.857883110081 52.367135437936  113.441635368407 52.189232575396  114.857142857143 52.5714285714286  C 117.400953081669 53.2582734593697  119.964305484173 55.3919586336479  119.964305484173 59.8604239239934  Z " fill-rule="nonzero" fill="#4ddb7d" stroke="none" transform="matrix(1 0 0 1 532 98 )" />
    </g>
  </defs>
  <g transform="matrix(1 0 0 1 -512 -78 )">
    <use xlink:href="#widget2" filter="url(#filter1)" />
    <use xlink:href="#widget2" />
  </g>
</svg>