<?xml version="1.0" encoding="utf-8"?>
<svg version="1.1" xmlns:xlink="http://www.w3.org/1999/xlink" width="30px" height="30px" xmlns="http://www.w3.org/2000/svg">
  <g transform="matrix(1 0 0 1 -39 -164 )">
    <path d="M 29.6067457932692 14.9640549879808  C 29.6067457932692 6.89930138221154  23.0451472355769 0.334435096153846  14.9771259014423 0.334435096153846  C 6.90910456730769 0.334435096153846  0.347506009615385 6.89603365384615  0.347506009615385 14.9640549879808  C 0.347506009615385 23.0320763221154  6.90910456730769 29.5936748798077  14.9771259014423 29.5936748798077  C 23.0451472355769 29.5936748798077  29.6067457932692 23.02880859375  29.6067457932692 14.9640549879808  Z M 21.7511268028846 6.62481219951924  C 22.1497896634615 6.89276592548077  22.3523888221154 7.37312199519231  22.2772310697115 7.85021033653846  L 20.3165940504808 19.927734375  C 20.2610426682692 20.267578125  20.0715144230769 20.5682091346154  19.7904897836538 20.7512019230769  C 19.5976938100962 20.8786433293269  19.3820237379808 20.9439978966346  19.1598182091346 20.9439978966346  C 19.0683218149039 20.9439978966346  18.9768254206731 20.9309269831731  18.8820612980769 20.9080528846154  L 12.2420372596154 19.2676532451923  L 12.2518404447115 22.1497896634615  L 14.3268479567308 20.2969876802885  C 14.5784630408654 20.0715144230769  14.9640549879808 20.0943885216346  15.1862605168269 20.3460036057692  C 15.4084660456731 20.5976186899038  15.3888596754808 20.9832106370192  15.1372445913462 21.2054161658654  L 12.8923152043269 23.2085336538462  C 12.6831805889423 23.3947941706731  12.4217623197115 23.4928260216346  12.1603440504808 23.4928260216346  C 12.0067608173077 23.4928260216346  11.8564453125 23.4601487379808  11.7093975360577 23.3947941706731  C 11.2976637620192 23.2118013822115  11.0329777644231 22.7935321514423  11.0329777644231 22.3295147235577  L 11.0329777644231 18.7578876201923  C 11.0329777644231 18.4801307091346  11.1277418870192 18.2121769831731  11.30419921875 18.0030423677885  L 15.55224609375 12.9217247596154  C 15.7679161658654 12.66357421875  16.1567758413462 12.6276292067308  16.4116586538462 12.8432992788462  C 16.6698091947115 13.0589693509615  16.7057542067308 13.4445612980769  16.4900841346154 13.7027118389423  L 12.7714092548077 18.1435546875  L 19.1728891225962 19.7251352163462  L 21.07470703125 7.65414663461539  L 6.43855168269231 16.5685096153846  L 10.0526592548077 17.4736703725962  C 10.3794320913462 17.5553635817308  10.5787635216346 17.8854041466346  10.4970703125 18.2121769831731  C 10.4153771033654 18.5356820913462  10.0918719951923 18.73828125  9.75856370192308 18.6565880408654  L 6.12484975961539 17.7579627403846  C 5.66083233173077 17.6435922475962  5.31118539663462 17.25146484375  5.23602764423077 16.7613055889423  C 5.16086989182692 16.2646108774039  5.38307542067308 15.7777193509615  5.80134465144231 15.5228365384615  L 20.5126577524039 6.59540264423077  C 20.9015174278846 6.36012620192308  21.3753380408654 6.37319711538462  21.7511268028846 6.62481219951924  Z " fill-rule="nonzero" fill="#52c41a" stroke="none" transform="matrix(1 0 0 1 39 164 )" />
  </g>
</svg>