<?xml version="1.0" encoding="utf-8"?>
<svg version="1.1" xmlns:xlink="http://www.w3.org/1999/xlink" width="116px" height="80px" xmlns="http://www.w3.org/2000/svg">
  <defs>
    <filter x="735px" y="736px" width="116px" height="80px" filterUnits="userSpaceOnUse" id="filter10">
      <feOffset dx="0" dy="3" in="SourceAlpha" result="shadowOffsetInner" />
      <feGaussianBlur stdDeviation="10" in="shadowOffsetInner" result="shadowGaussian" />
      <feComposite in2="shadowGaussian" operator="atop" in="SourceAlpha" result="shadowComposite" />
      <feColorMatrix type="matrix" values="0 0 0 0 0.2  0 0 0 0 0.43921568627451  0 0 0 0 1  0 0 0 0.0980392156862745 0  " in="shadowComposite" />
    </filter>
    <g id="widget11">
      <path d="M 755.5 758  A 4.5 4.5 0 0 1 760 753.5 L 826 753.5  A 4.5 4.5 0 0 1 830.5 758 L 830.5 788  A 4.5 4.5 0 0 1 826 792.5 L 760 792.5  A 4.5 4.5 0 0 1 755.5 788 L 755.5 758  Z " fill-rule="nonzero" fill="#ffffff" stroke="none" fill-opacity="0" />
      <path d="M 755.5 758  A 4.5 4.5 0 0 1 760 753.5 L 826 753.5  A 4.5 4.5 0 0 1 830.5 758 L 830.5 788  A 4.5 4.5 0 0 1 826 792.5 L 760 792.5  A 4.5 4.5 0 0 1 755.5 788 L 755.5 758  Z " stroke-width="1" stroke="#e4e4e4" fill="none" />
    </g>
  </defs>
  <g transform="matrix(1 0 0 1 -735 -736 )">
    <use xlink:href="#widget11" filter="url(#filter10)" />
    <use xlink:href="#widget11" />
  </g>
</svg>