<?xml version="1.0" encoding="utf-8"?>
<svg version="1.1" xmlns:xlink="http://www.w3.org/1999/xlink" width="709px" height="99px" xmlns="http://www.w3.org/2000/svg">
  <g transform="matrix(1 0 0 1 -854 -149 )">
    <path d="M 855 152  A 2 2 0 0 1 857 150 L 1560 150  A 2 2 0 0 1 1562 152 L 1562 245  A 2 2 0 0 1 1560 247 L 857 247  A 2 2 0 0 1 855 245 L 855 152  Z " fill-rule="nonzero" fill="#ffffff" stroke="none" />
    <path d="M 854.5 152  A 2.5 2.5 0 0 1 857 149.5 L 1560 149.5  A 2.5 2.5 0 0 1 1562.5 152 L 1562.5 245  A 2.5 2.5 0 0 1 1560 247.5 L 857 247.5  A 2.5 2.5 0 0 1 854.5 245 L 854.5 152  Z " stroke-width="1" stroke-dasharray="9,4" stroke="#e0e6ed" fill="none" stroke-dashoffset="0.5" />
  </g>
</svg>