<?xml version="1.0" encoding="utf-8"?>
<svg version="1.1" xmlns:xlink="http://www.w3.org/1999/xlink" width="15px" height="20px" xmlns="http://www.w3.org/2000/svg">
  <g transform="matrix(1 0 0 1 -1201 -183 )">
    <path d="M 14.5255 8.71375  L 7.90525 1.147  C 7.80096722965482 1.02012257176032  7.64535891241635 0.946595732009157  7.481125 0.946595732009157  C 7.31689108758365 0.946595732009157  7.16128277034518 1.02012257176032  7.057 1.147  L 0.436 8.71375  C 0.20275 8.98075  0.30175 9.199  0.65575 9.199  L 3.6355 9.199  C 3.9895 9.199  4.27975 9.48925  4.27975 9.84325  L 4.27975 14.8075  C 4.27975 15.1615  4.57 15.45175  4.924 15.45175  L 10.0375 15.45175  C 10.3927968907163 15.4505156047361  10.6805156047361 15.1627968907163  10.68175 14.8075  L 10.68175 9.84325  C 10.68175 9.48925  10.972 9.199  11.326 9.199  L 14.30575 9.199  C 14.65975 9.199  14.7595 8.98075  14.5255 8.71375  Z M 0.0114999999999998 18.409  L 0.0114999999999998 17.56375  C 0.0114999999999998 17.20975  0.30175 16.9195  0.65575 17  L 14.3065 17  C 14.6605 16.9195  14.95075 17.20975  14.95075 17.56375  L 14.95075 18.409  C 14.9495156047361 18.7642968907163  14.6617968907163 19.0520156047361  14.3065 19  L 0.65575 19  C 0.300453109283671 19.0520156047361  0.0127343952638661 18.7642968907163  0.0114999999999998 18.409  Z " fill-rule="nonzero" fill="#d7d7d7" stroke="none" transform="matrix(1 0 0 1 1201 183 )" />
  </g>
</svg>