<?xml version="1.0" encoding="utf-8"?>
<svg version="1.1" xmlns:xlink="http://www.w3.org/1999/xlink" width="8px" height="8px" xmlns="http://www.w3.org/2000/svg">
  <g transform="matrix(1 0 0 1 -126 -150 )">
    <path d="M 130 150  C 132.24 150  134 151.76  134 154  C 134 156.24  132.24 158  130 158  C 127.76 158  126 156.24  126 154  C 126 151.76  127.76 150  130 150  Z " fill-rule="nonzero" fill="#ffffff" stroke="none" />
    <path d="M 130 150.5  C 131.96 150.5  133.5 152.04  133.5 154  C 133.5 155.96  131.96 157.5  130 157.5  C 128.04 157.5  126.5 155.96  126.5 154  C 126.5 152.04  128.04 150.5  130 150.5  Z " stroke-width="1" stroke="#ffffff" fill="none" />
  </g>
</svg>