<?xml version="1.0" encoding="utf-8"?>
<svg version="1.1" xmlns:xlink="http://www.w3.org/1999/xlink" width="881px" height="106px" xmlns="http://www.w3.org/2000/svg">
  <g transform="matrix(1 0 0 1 -722 -23 )">
    <path d="M 723 26  A 2 2 0 0 1 725 24 L 1600 24  A 2 2 0 0 1 1602 26 L 1602 126  A 2 2 0 0 1 1600 128 L 725 128  A 2 2 0 0 1 723 126 L 723 26  Z " fill-rule="nonzero" fill="#ffffff" stroke="none" />
    <path d="M 722.5 26  A 2.5 2.5 0 0 1 725 23.5 L 1600 23.5  A 2.5 2.5 0 0 1 1602.5 26 L 1602.5 126  A 2.5 2.5 0 0 1 1600 128.5 L 725 128.5  A 2.5 2.5 0 0 1 722.5 126 L 722.5 26  Z " stroke-width="1" stroke="#d3dce6" fill="none" stroke-opacity="0.450980392156863" />
  </g>
</svg>