<?xml version="1.0" encoding="utf-8"?>
<svg version="1.1" xmlns:xlink="http://www.w3.org/1999/xlink" width="1606px" height="43px" xmlns="http://www.w3.org/2000/svg">
  <defs>
    <mask fill="white" id="clip9">
      <path d="M 0 38  L 0 5  C 0 2.19999999999999  2.40517358747446 0  5.46630360789653 0  L 1600.5336963921 0  C 1603.59482641253 0  1606 2.19999999999999  1606 5  L 1606 38  C 1606 39.4682186141292  1606 43  1606 43  C 1606 43  1601.98968067101 43  1600.5336963921 43  L 5.46630360789653 43  C 3.84784170774758 43  0 43  0 43  C 0 43  0 39.3196011635624  0 38  Z " fill-rule="evenodd" />
    </mask>
  </defs>
  <g transform="matrix(1 0 0 1 -16 -264 )">
    <path d="M 0 38  L 0 5  C 0 2.19999999999999  2.40517358747446 0  5.46630360789653 0  L 1600.5336963921 0  C 1603.59482641253 0  1606 2.19999999999999  1606 5  L 1606 38  C 1606 39.4682186141292  1606 43  1606 43  C 1606 43  1601.98968067101 43  1600.5336963921 43  L 5.46630360789653 43  C 3.84784170774758 43  0 43  0 43  C 0 43  0 39.3196011635624  0 38  Z " fill-rule="nonzero" fill="#52c41a" stroke="none" fill-opacity="0.396078431372549" transform="matrix(1 0 0 1 16 264 )" />
    <path d="M 0 38  L 0 5  C 0 2.19999999999999  2.40517358747446 0  5.46630360789653 0  L 1600.5336963921 0  C 1603.59482641253 0  1606 2.19999999999999  1606 5  L 1606 38  C 1606 39.4682186141292  1606 43  1606 43  C 1606 43  1601.98968067101 43  1600.5336963921 43  L 5.46630360789653 43  C 3.84784170774758 43  0 43  0 43  C 0 43  0 39.3196011635624  0 38  Z " stroke-width="2" stroke="#bae8a4" fill="none" transform="matrix(1 0 0 1 16 264 )" mask="url(#clip9)" />
  </g>
</svg>