<?xml version="1.0" encoding="utf-8"?>
<svg version="1.1" xmlns:xlink="http://www.w3.org/1999/xlink" width="16px" height="5px" xmlns="http://www.w3.org/2000/svg">
  <g transform="matrix(1 0 0 1 -1066 -142 )">
    <path d="M 15.8751889824219 3.49924408789063  C 15.8751889824219 3.18780446679688  15.6242230859375 2.9368385703125  15.3127834648438 2.9368385703125  L 12.5007559121094 2.9368385703125  L 12.5007559296875 1.81202755273437  C 12.5007559296875 0.880732408203125  11.7508819238281 0.124811017578125  10.8256341464844 0.124811017578125  L 5.18646060546875 0.124811017578125  C 4.2551654609375 0.124811017578125  3.4992440703125 0.880732408203125  3.4992440703125 1.81202755273437  L 3.4992440703125 2.9368385703125  L 0.687216517578125 2.9368385703125  C 0.3757769140625 2.9368385703125  0.124811 3.18780446679687  0.124811 3.49924408789063  C 0.124811 3.81068370898437  0.375776896484375 4.06164960546875  0.687216517578125 4  L 15.3127834648438 4  C 15.6242230683594 4.06164960546875  15.8751889824219 3.81068370898437  15.8751889824219 3.49924408789063  Z M 4.62405510546875 1.81202755273437  C 4.62405510546875 1.5036116328125  4.87804468554687 1.24962203515625  5.18646062304687 1.24962203515625  L 10.8256341464844 1.24962203515625  C 11.1340500664062 1.24962203515625  11.3759449121094 1.49756424804687  11.3759449121094 1.81202755273437  L 11.3759449121094 2.9368385703125  L 4.62405510546875 2.9368385703125  L 4.62405510546875 1.81202755273437  Z " fill-rule="nonzero" fill="#d1d5da" stroke="none" transform="matrix(1 0 0 1 1066 142 )" />
  </g>
</svg>