<?xml version="1.0" encoding="utf-8"?>
<svg version="1.1" xmlns:xlink="http://www.w3.org/1999/xlink" width="12px" height="11px" xmlns="http://www.w3.org/2000/svg">
  <g transform="matrix(1 0 0 1 -1068 -147 )">
    <path d="M 11.6285906484375 9.18797244726563  C 11.6255669472656 10.1162439082031  10.8696455566406 10.8751889824219  9.93835041210937 10.8751889824219  L 2.06467327148437 10.8751889824219  C 1.13337812695312 10.8751889824219  0.377456736328124 10.1192675917969  0.377456736328124 9.18797244726563  L 0.377456736328125 0.74281873828125  C 0.377456736328125 0.431379134765626  0.6284226328125 0.180413220703126  0.93986225390625 0.180413220703126  C 1.251301875 0.180413220703126  1.50226777148437 0.431379117187501  1.50226777148437 0.74281873828125  L 1.50226777148437 9.18797244726563  C 1.50226777148437 9.49941205078125  1.7562573515625 9.75037796484375  2.0646732890625 9.75037796484375  L 9.94137411328125 9.75037796484375  C 10.2528137167969 9.75037796484375  10.5037796308594 9.49941206835938  10.5037796308594 9.18797244726563  L 10.5037796132812 0.763984541015625  C 10.5037796132812 0.452544937500001  10.7547455097656 0.201579023437501  11.0661851308594 0.201579023437501  C 11.3776247519531 0.201579023437501  11.6285906484375 0.452544919921875  11.6285906484375 0.763984541015625  L 11.6285906484375 9.18797244726563  Z " fill-rule="nonzero" fill="#d1d5da" stroke="none" transform="matrix(1 0 0 1 1068 147 )" />
  </g>
</svg>