<?xml version="1.0" encoding="utf-8"?>
<svg version="1.1" xmlns:xlink="http://www.w3.org/1999/xlink" width="8px" height="10px" xmlns="http://www.w3.org/2000/svg">
  <g transform="matrix(1 0 0 1 -322 -157 )">
    <path d="M 0.979166669921875 8.02083333007813  L 0.979166669921875 2.5  L 0.5625 2.5  C 0.389911015677877 2.5  0.25 2.36008898432212  0.25 2.1875  C 0.25 2.01491101567788  0.389911015677877 1.875  0.5625 1.875  L 7.4375 1.875  C 7.61008898432212 1.875  7.75 2.01491101567788  7.75 2.1875  C 7.75 2.36008898432212  7.61008898432212 2.5  7.4375 2.5  L 1.60416666992188 2.5  L 1.60416666992188 8.02083333007812  C 1.60416666992187 8.30848164524949  1.83735169459426 8.54166666992187  2.125 8.54166666992187  L 5.875 8.54166666992187  C 6.16264830540574 8.54166666992187  6.39583333007812 8.30848164524949  6.39583333007812 8.02083333984375  L 6.39583333007813 3.4375  C 6.39583333007813 3.26491101567788  6.535744345756 3.125  6.70833333007813 3.125  C 6.88092231440025 3.125  7.02083333007813 3.26491101567788  7.02083333007813 3.4375  L 7.02083333007813 8.02083333007813  C 7.02083333007813 8.65364583007812  6.5078125 9.16666666015625  5.875 9.16666666992188  L 2.125 9.16666666992188  C 1.4921875 9.16666666992188  0.979166669921875 8.65364583984375  0.979166669921875 8.02083333007813  Z M 4.83333333007812 1.45833333007812  L 3.16666666992187 1.45833333007812  C 2.99407768559975 1.45833333007812  2.85416666992187 1.31842231440025  2.85416666992187 1.14583333007812  C 2.85416666992187 0.973244345756002  2.99407768559975 0.833333330078125  3.16666666992187 0.833333330078125  L 4.83333333007812 0.833333330078125  C 5.00592231440025 0.833333330078125  5.14583333007812 0.973244345756002  5.14583333007812 1.14583333007812  C 5.14583333007812 1.31842231440025  5.00592231440025 1.45833333007812  4.83333333007812 1.45833333007812  Z M 2.85416666992187 6.77083333007813  L 2.85416666992187 4.27083333007812  C 2.85416666992187 4.098244345756  2.99407768559975 3.95833333007812  3.16666666992187 3.95833333007812  C 3.339255654244 3.95833333007812  3.47916666992187 4.098244345756  3.47916666992187 4.27083333007812  L 3.47916666992187 6.77083333007813  C 3.47916666992187 6.94342231440025  3.339255654244 7.08333333007813  3.16666666992187 7.08333333007813  C 2.99407768559975 7.08333333007813  2.85416666992187 6.94342231440025  2.85416666992187 6.77083333007813  Z M 4.52083333007812 6.77083333007813  L 4.52083333007812 4.27083333007812  C 4.52083333007812 4.098244345756  4.660744345756 3.95833333007812  4.83333333007812 3.95833333007812  C 5.00592231440025 3.95833333007812  5.14583333007812 4.098244345756  5.14583333007812 4.27083333007812  L 5.14583333007812 6.77083333007813  C 5.14583333007812 6.94342231440025  5.00592231440025 7.08333333007813  4.83333333007812 7.08333333007813  C 4.660744345756 7.08333333007813  4.52083333007812 6.94342231440025  4.52083333007812 6.77083333007813  Z " fill-rule="nonzero" fill="#95f204" stroke="none" transform="matrix(1 0 0 1 322 157 )" />
  </g>
</svg>