<?xml version="1.0" encoding="utf-8"?>
<svg version="1.1" xmlns:xlink="http://www.w3.org/1999/xlink" width="18px" height="18px" xmlns="http://www.w3.org/2000/svg">
  <g transform="matrix(1 0 0 1 -1179 -825 )">
    <path d="M 17.9996850175781 8.99967859300288  C 17.9996850175781 13.9700724901143  13.9703974628906 18  9 18  C 4.02960253710938 18  0.000314982421875 13.9700724901143  0.000314982421875 8.99967859300288  C 0.000314982421875 4.02928466073527  4.02960253710938 0  9 0  C 13.9703974628906 0  17.9996850175781 4.02928466073527  17.9996850175781 8.99967859300288  Z M 16.714015734375 9.00032140699712  C 16.714015734375 4.74025928014694  13.2600651855469 1.28631119697902  9 1.28631119697902  C 4.73993481445313 1.28631119697902  1.285984265625 4.74025928014694  1.285984265625 9.00032140699712  C 1.285984265625 13.2603835514254  4.73993481445313 16.7143316345933  9 16.7143316345933  C 13.2600651855469 16.7143316345933  16.714015734375 13.2603835514254  16.714015734375 9.00032140699712  Z M 9.64283465039063 9.64315559848951  L 9.64283465039063 12.8573265207952  L 8.35716534960937 12.8573265207952  L 8.35716534960937 9.64315559848951  L 5.14299215039063 9.64315559848951  L 5.14299215039063 8.35684440151049  L 8.35716534960937 8.35684440151049  L 8.35716534960937 5.14267346162666  L 9.64283465039063 5.14267346162666  L 9.64283465039063 8.35684440151049  L 12.8570078496094 8.35684440151049  L 12.8570078496094 9.64315559848951  L 9.64283465039063 9.64315559848951  Z " fill-rule="nonzero" fill="#52c41a" stroke="none" transform="matrix(1 0 0 1 1179 825 )" />
  </g>
</svg>