<?xml version="1.0" encoding="utf-8"?>
<svg version="1.1" xmlns:xlink="http://www.w3.org/1999/xlink" width="28px" height="31px" xmlns="http://www.w3.org/2000/svg">
  <g transform="matrix(1 0 0 1 -507 -298 )">
    <path d="M 11.6413043478261 11.005  L 2.43478260869565 11.005  C 1.67839262523174 11.005  1.06521739130435 10.380437226014  1.06521739130435 9.61  C 1.06521739130435 8.83956277398604  1.67839262523174 8.215  2.43478260869565 8.215  L 11.6413043478261 8.215  C 12.39769433129 8.215  13.0108695652174 8.83956277398604  13.0108695652174 9.61  C 13.0108695652174 10.380437226014  12.39769433129 11.005  11.6413043478261 11.005  Z M 25.5652173913043 11.43125  L 17.5 11.43125  C 16.7436100165361 11.43125  16.1304347826087 10.806687226014  16.1304347826087 10.03625  L 16.1304347826087 1.82125  C 16.1304347826087 1.05081277398604  16.7436100165361 0.42625  17.5 0.42625  C 18.2563899834639 0.42625  18.8695652173913 1.05081277398604  18.8695652173913 1.82125  L 18.8695652173913 8.64125  L 25.5652173913043 8.64125  C 26.3216073747683 8.64125  26.9347826086956 9.26581277398604  26.9347826086956 10.03625  C 26.9347826086956 10.806687226014  26.3216073747683 11.43125  25.5652173913043 11.43125  Z M 11.6413043478261 16.12  L 2.43478260869565 16.12  C 1.67839262523174 16.12  1.06521739130435 15.495437226014  1.06521739130435 14.725  C 1.06521739130435 13.954562773986  1.67839262523174 13.33  2.43478260869565 13.33  L 11.6413043478261 13.33  C 12.39769433129 13.33  13.0108695652174 13.954562773986  13.0108695652174 14.725  C 13.0108695652174 15.495437226014  12.39769433129 16.12  11.6413043478261 16.12  Z M 8.10516304347826 25.9218125  C 8.24693590069057 26.1547953860986  8.3485798726388 26.4107413406271  8.40570652173913 26.6786  C 8.47098612554773 26.994517433054  8.50198737859098 27.3167846622204  8.49815217391304 27.6396  C 8.49815217391305 28.5019166666667  8.33900362318841 29.1173958333333  8.02070652173913 29.4860375  C 7.70240942028986 29.8546791666667  7.23320652173913 30.0388708333333  6.61309782608696 30.0386125  L 5.67038043478261 30.0386125  L 5.67038043478261 25.2188875  L 6.61461956521739 25.2188875  C 6.96614130434783 25.2188875  7.26769927536232 25.279725  7.51929347826087 25.4014  C 7.75996330089164 25.5133852398273  7.96350368823919 25.6941848036197  8.10516304347826 25.9218125  Z " fill-rule="nonzero" fill="#959ca7" stroke="none" fill-opacity="0.498039215686275" transform="matrix(1 0 0 1 507 298 )" />
  </g>
</svg>