<?xml version="1.0" encoding="utf-8"?>
<svg version="1.1" xmlns:xlink="http://www.w3.org/1999/xlink" width="26px" height="14px" xmlns="http://www.w3.org/2000/svg">
  <g transform="matrix(1 0 0 1 -501 -319 )">
    <path d="M 25 1.23295454545454  C 25.1488095238095 0.793637130816408  24.8023631992738 0.437499999999996  24.375 0.4375  L 1.85714285714286 0.437499999999996  C 1.42977965786903 0.437499999999996  1.08333333333333 0.793637130816408  1 1.23295454545455  L 1 12.2102272727273  C 1.08333333333333 12.6495446873654  1.42977965786903 13.0056818181818  1.85714285714286 13  L 24.375 13  C 24.8023631992738 13.0056818181818  25.1488095238095 12.6495446873654  25 12.2102272727273  L 25 1.23295454545454  Z M 9.41958333333334 5.48625  C 9.41958333333334 6.23026515151516  9.19633928571429 6.83746212121212  8.74985119047619 7.30784090909091  C 8.3033630952381 7.77901515151515  7.68715277777778 8.01473484848485  6.90122023809524 8.015  L 5.48669642857143 8.015  L 5.48669642857143 10.4856818181818  L 3.92553571428571 10.4856818181818  L 3.92553571428571 2.9575  L 6.91127976190476 2.9575  C 7.69205357142857 2.9575  8.30516865079365 3.19613636363637  8.750625 3.67340909090909  C 9.19608134920635 4.15068181818182  9.41906746031746 4.75496212121212  9.41958333333334 5.48625  Z M 16.4326190476191 6.69971590909091  C 16.4355987543659 7.1167487071831  16.3976185228477 7.53302560542908  16.319255952381 7.94221590909091  C 16.2484546985635 8.30574206870663  16.1263192218347 8.65667088924117  15.9567261904762 8.98386363636364  C 15.6341622326262 9.62462449857366  15.0704225985436 10.101655490657  14.3967261904762 10.3039204545455  C 13.9912931422566 10.4306450462262  13.5691927140799 10.4919609698361  13.1454761904762 10.4856818181818  L 10.4011607142857 10.4856818181818  L 10.4011607142857 2.9575  L 13.1454761904762 2.9575  C 13.7253174603175 2.9575  14.2282936507937 3.04672348484849  14.6544047619048 3.22517045454546  C 15.0805158730159 3.40361742424243  15.4224107142857 3.66121212121212  15.6800892857143 3.99795454545454  C 15.9442473275855 4.3468274030989  16.1380030568767 4.74639530110521  16.25 5.17323863636364  C 16.372003968254 5.6208143939394  16.432876984127 6.12964015151516  16.4326190476191 6.69971590909091  Z M 22.3069940476191 2.9575  L 22.306994047619 4.248125  L 19.1250892857143 4.248125  L 19.1250892857143 6.26659090909091  L 22.026875 6.26659090909091  L 22.026875 7.55681818181818  L 19.1250892857143 7.55681818181818  L 19.1250892857143 10.4852840909091  L 17.5693452380952 10.4852840909091  L 17.5693452380952 2.9575  L 22.3069940476191 2.9575  Z M 7.51291666666666 4.52176136363637  C 7.2934126984127 4.29505681818183  6.98737103174603 4.18170454545456  6.59479166666666 4.18170454545455  L 5.48127976190476 4.18170454545455  L 5.48127976190476 6.79039772727273  L 6.30035714285714 6.79039772727273  C 6.80720238095238 6.79039772727273  7.19088293650793 6.69109848484849  7.45139880952381 6.49250000000001  C 7.71191468253968 6.29390151515152  7.84217261904762 5.95848484848486  7.84217261904762 5.48625000000001  C 7.84217261904762 5.06996212121213  7.73242063492063 4.74846590909092  7.51291666666666 4.52176136363637  Z " fill-rule="nonzero" fill="#959ca7" stroke="none" fill-opacity="0.498039215686275" transform="matrix(1 0 0 1 501 319 )" />
  </g>
</svg>