<?xml version="1.0" encoding="utf-8"?>
<svg version="1.1" xmlns:xlink="http://www.w3.org/1999/xlink" width="35px" height="40px" xmlns="http://www.w3.org/2000/svg">
  <g transform="matrix(1 0 0 1 -501 -298 )">
    <path d="M 4 3  L 23.326171875 3  L 31 10.226953125  L 31 37  L 4 37  L 4 3  Z M 25.132421875 0.6484375  C 24.6968122838246 0.232601297125688  24.1178502923283 0.000401029939433036  23.515625 0  L 3.4375 0  C 2.14308261758408 0  1.09375 1.04933261758408  1 2.34375  L 1 37.65625  C 1.09375 38.9506673824159  2.14308261758408 40  3.4375 40  L 31.5625 40  C 32.8569173824159 40  33.90625 38.9506673824159  34 37.65625  L 34 10.026171875  C 33.906250602603 9.38569112080547  33.6441398512646 8.77311133577123  33.180859375 8.330859375  L 25.132421875 0.6484375  Z " fill-rule="nonzero" fill="#959ca7" stroke="none" fill-opacity="0.498039215686275" transform="matrix(1 0 0 1 501 298 )" />
  </g>
</svg>