<?xml version="1.0" encoding="utf-8"?>
<svg version="1.1" xmlns:xlink="http://www.w3.org/1999/xlink" width="8px" height="8px" xmlns="http://www.w3.org/2000/svg">
  <defs>
    <mask fill="white" id="clip12">
      <path d="M 0 4  C 0 1.75999999999999  1.76000000000022 0  4 0  C 6.23999999999978 0  8 1.75999999999999  8 4  C 8 5.08984343402182  7.58337545224867 6.06606199138417  6.89754698266097 6.78123504617167  C 6.17376401273486 7.53598656285428  5.15015656597825 8  4 8  C 1.76000000000022 8  0 6.24000000000001  0 4  Z " fill-rule="evenodd" />
    </mask>
  </defs>
  <g transform="matrix(1 0 0 1 -468 -838 )">
    <path d="M 0 4  C 0 1.75999999999999  1.76000000000022 0  4 0  C 6.23999999999978 0  8 1.75999999999999  8 4  C 8 5.08984343402182  7.58337545224867 6.06606199138417  6.89754698266097 6.78123504617167  C 6.17376401273486 7.53598656285428  5.15015656597825 8  4 8  C 1.76000000000022 8  0 6.24000000000001  0 4  Z " fill-rule="nonzero" fill="#ffffff" stroke="none" transform="matrix(1 0 0 1 468 838 )" />
    <path d="M 0 4  C 0 1.75999999999999  1.76000000000022 0  4 0  C 6.23999999999978 0  8 1.75999999999999  8 4  C 8 5.08984343402182  7.58337545224867 6.06606199138417  6.89754698266097 6.78123504617167  C 6.17376401273486 7.53598656285428  5.15015656597825 8  4 8  C 1.76000000000022 8  0 6.24000000000001  0 4  Z " stroke-width="2" stroke="#ffffff" fill="none" transform="matrix(1 0 0 1 468 838 )" mask="url(#clip12)" />
  </g>
</svg>