<?xml version="1.0" encoding="utf-8"?>
<svg version="1.1" xmlns:xlink="http://www.w3.org/1999/xlink" width="28px" height="28px" xmlns="http://www.w3.org/2000/svg">
  <g transform="matrix(1 0 0 1 -1744 -18 )">
    <path d="M 20.8252121328125 17.4134545429687  L 20.8252121328125 17.4117575625  C 20.4747878945313 18.2873939335937  19.862181828125 19.0747878671875  19.2495757617187 19.773939390625  C 18.5781705785466 20.455316698431  17.774234253195 20.9918517865886  16.8873939335937 21.3504242382812  C 16.0126060664062 21.7  15.0504242382812 21.9621818007812  14 21.962181828125  C 12.9495757617187 21.9621818554687  11.9882424375 21.7873939609375  11.1126060664063 21.3504242382813  C 10.2610569074996 20.9280704068105  9.46718778121346 20.3982540168479  8.75042423828125 19.773939390625  C 8.06948991389031 19.1025146368226  7.53351524036231 18.2985526172242  7.17563637109375 17.4117575625  C 6.82436365625 16.537818171875  6.562181828125 15.573939390625  6.562181828125 14.5243636289062  C 6.562181828125 13.9134545429687  6.650424265625 13.3  6.737818171875 12.7747878671875  C 6.9117575625 12.16387878125  7.08739393359375 11.637818171875  7.34957576171875 11.1117575625  C 7.61260606640625 10.5882424101562  7.962181828125 10.1504242382812  8.31260606640625 9.62436362890625  C 8.68500089604418 9.15156152034558  9.12767823490025 8.7386440069287  9.6252121328125 8.4  C 9.8882424375 8.22436362890625  10.150424265625 8.137818171875  10.4126060664063 8.22436362890625  C 10.6756363710938 8.31345454296875  10.9378181992188 8.4  11.1126060664063 8.662181828125  C 11.2882424375 8.92436365625  11.3756363710938 9.1882424375  11.2882424375 9.44957576171875  C 11.2 9.71260606640625  11.1126060664063 9.973939390625  10.8495757617188 10.1495757617188  C 10.1495757617188 10.6747878945312  9.53781819921875 11.2873939335937  9.18739393359375 12.073939390625  C 8.837818171875 12.8630303046875  8.573939390625 13.6495757617188  8.573939390625 14.5243636289063  C 8.573939390625 15.2243636289063  8.74957576171875 15.9243636289063  9.0117575625 16.6243636289062  C 9.2747878671875 17.3243636289063  9.7117575625 17.8504242382812  10.1495757617188 18.2873939335937  C 10.6233095808727 18.7725919195351  11.1885538103284 19.1590344019901  11.8126060664063 19.4243636289062  C 12.4744242382813 19.7128484765625  13.1896969804688 19.8613333242187  13.9117575625 19.862181828125  C 14.6117575625 19.862181828125  15.3117575625 19.6873939609375  16.0126060664062 19.4243636289062  C 16.7126060664063 19.1621818007813  17.2378181992188 18.7243636289062  17.6747878671875 18.2873939335937  C 18.1599858531288 17.8136601144398  18.5464283355839 17.2484158849841  18.8117575625 16.6243636289062  C 19.1002424101562 15.961696953125  19.2487272578125 15.2472727148438  19.2504242382813 14.5243636289063  C 19.2504242382813 13.6504242382813  19.0756363710938 12.8621818007813  18.726060609375 12.162181828125  C 18.3756363710938 11.462181828125  17.8504242382812 10.762181828125  17.1495757617188 10.3243636289062  C 16.8882424375 10.1504242382813  16.8 9.88824241015625  16.7126060664063 9.62436362890625  C 16.6243636289062 9.36218180078125  16.7126060664063 9.1  16.8882424375 8.837818171875  C 17.062181828125 8.5747878671875  17.3252121328125 8.48824241015625  17.5882424375 8.4  C 17.850424265625 8.31260606640625  18.1117575898438 8.4  18.3747878671875 8.573939390625  C 18.8256365128681 8.93788620038072  19.2363653883477 9.34889951135931  19.6 9.8  C 19.9495757617187 10.237818171875  20.3 10.762181828125  20.562181828125 11.2  C 20.8252121328125 11.7243636289062  21 12.2504242382812  21.1756363710937 12.7747878671875  C 21.3504242382812 13.3  21.3504242382812 13.9117575625  21.3504242382812 14.5243636289062  C 21.437818171875 15.5747878671875  21.2621818007812 16.537818171875  20.8252121328125 17.4134545429687  Z M 12.9495757617187 7.2630303046875  C 12.9495757617187 7.0008484765625  13.0378181992187 6.73866667578125  13.3 6.4747878671875  C 13.5044848476562 6.2567272578125  13.7887272851562 6.13115149609375  14.0873939335937 6.1252121328125  C 14.3504242382812 6.1252121328125  14.6117575625 6.214303046875  14.7873939335937 6.4747878671875  C 15.0063030195312 6.68012119140625  15.1327272578125 6.96436362890625  15.137818171875 7.26387878125  L 15.137818171875 13.56387878125  C 15.137818171875 13.8252121054688  15.049575734375 14.0890909140625  14.7873939335937 14.2647272851563  C 14.6117575625 14.4386666757813  14.3504242382812 14.6126060664063  14.0873939335937 14.6126060664063  C 13.8243636289062 14.6126060664063  13.5621818007812 14.5252121328125  13.3 14.2630303046875  C 13.1252121328125 14.0882424375  12.9495757617187 13.8252121328125  12.9495757617187 13.5630303046875  L 12.9495757617187 7.262181828125  Z M 28 14  C 28 6.3  21.7 0  14 0  C 6.3 0  0 6.3  0 14  C 0 21.7  6.3 28  14 28  C 21.7 28  28 21.7  28 14  Z " fill-rule="nonzero" fill="#ff3366" stroke="none" fill-opacity="0.447058823529412" transform="matrix(1 0 0 1 1744 18 )" />
  </g>
</svg>