<?xml version="1.0" encoding="utf-8"?>
<svg version="1.1" xmlns:xlink="http://www.w3.org/1999/xlink" width="48px" height="34px" xmlns="http://www.w3.org/2000/svg">
  <g transform="matrix(1 0 0 1 -73 -13 )">
    <path d="M 16.13203125 14.0837890625  C 11.5810546875 16.6888671875  7.4044921875 20.26953125  3.4546875 25.41640625  C 5.764453125 12.0693359375  11.8078125 7.1439453125  18.969140625 5.1294921875  C 27.9181640625 2.666796875  35.74921875 4.459765625  43.2796875 0.879101562500002  C 47.8306640625 -1.2830078125  47.677734375 2.59296875  47.60390625 3.1888671875  C 46.4859375 12.1431640625  41.708203125 20.5701171875  31.6412109375 24.59375  C 20.677734375 28.9970703125  9.793359375 20.8654296875  1.9623046875 33.621875  C 1.8884765625 33.695703125  1.8146484375 33.76953125  1.66171875 33.76953125  L 0.69140625 33.76953125  C 0.469921875 33.76953125  0.3169921875 33.548046875  0.3908203125 33.3212890625  C 3.3755859375 27.430859375  7.6259765625 22.431640625  13.0734375 18.4080078125  C 17.9935546875 14.753515625  23.81015625 11.9955078125  30.5232421875 9.7595703125  C 31.0453125 9.6119140625  30.823828125 8.7892578125  30.3017578125 8.8630859375  C 25.1548828125 10.0548828125  20.45625 11.62109375  16.13203125 14.0837890625  Z " fill-rule="nonzero" fill="#95f204" stroke="none" transform="matrix(1 0 0 1 73 13 )" />
  </g>
</svg>