<?xml version="1.0" encoding="utf-8"?>
<svg version="1.1" xmlns:xlink="http://www.w3.org/1999/xlink" width="44px" height="60px" xmlns="http://www.w3.org/2000/svg">
  <g transform="matrix(1 0 0 1 -568 -52 )">
    <path d="M 4.38285668615385 16.2963179123077  L 2.79677713692308 15.5575387630769  L 1.29000148769231 16.4507520030769  L 1.49869624461538 14.7144122353846  L 0.188093653846153 13.5540698630769  L 1.90356389692307 13.2201583661538  L 2.59643020615385 11.6132093738461  L 3.44790447846154 13.1408543846154  L 5.18841811846154 13.3078101738461  L 3.99885847692308 14.5891954953846  L 4.38285668615385 16.2963179123077  Z M 40.1030376446154 59.9635921876923  L 40.1406026584615 58.2147308030769  L 38.7214788984615 57.1963008230769  L 40.3910363015384 56.6870857923077  L 40.9252946476923 55.0217022615385  L 41.9228551846154 56.4575216738461  L 43.6717166507692 56.4491738476923  L 42.6157215753846 57.8432542923077  L 43.1666754923077 59.5002899969231  L 41.51381366 58.9284666369231  L 40.1030376446154 59.9635921876923  Z M 8.96161784615384 5.24802173384614  L 7.75118876153846 3.98750585538461  L 6.02319682 4.26715668615385  L 6.84962769538461 2.72698997692308  L 6.04824013538461 1.17430156923078  L 7.76788433230769 1.48316975076924  L 8.99918294153846 0.239349443076918  L 9.23709480461538 1.97151525692308  L 10.7981310384615 2.75620724615385  L 9.2245731876923 3.51585583846153  L 8.96161784615384 5.24802173384614  Z " fill-rule="nonzero" fill="#1890ff" stroke="none" transform="matrix(1 0 0 1 568 52 )" />
  </g>
</svg>