<?xml version="1.0" encoding="utf-8"?>
<svg version="1.1" xmlns:xlink="http://www.w3.org/1999/xlink" width="6px" height="6px" xmlns="http://www.w3.org/2000/svg">
  <g transform="matrix(1 0 0 1 -21 -73 )">
    <path d="M 24 73  C 25.68 73  27 74.32  27 76  C 27 77.68  25.68 79  24 79  C 22.32 79  21 77.68  21 76  C 21 74.32  22.32 73  24 73  Z " fill-rule="nonzero" fill="#aaaaaa" stroke="none" />
    <path d="M 24 73.5  C 25.4 73.5  26.5 74.6  26.5 76  C 26.5 77.4  25.4 78.5  24 78.5  C 22.6 78.5  21.5 77.4  21.5 76  C 21.5 74.6  22.6 73.5  24 73.5  Z " stroke-width="1" stroke="#797979" fill="none" />
  </g>
</svg>