<?xml version="1.0" encoding="utf-8"?>
<svg version="1.1" xmlns:xlink="http://www.w3.org/1999/xlink" width="84px" height="84px" xmlns="http://www.w3.org/2000/svg">
  <g transform="matrix(1 0 0 1 -562 -33 )">
    <path d="M 2.42741554307692 43.7234089907692  C 1.78992593542184 28.943831453486  9.42502438253936 15.0362406059412  22.2367142969231 7.64009926615385  C 35.0579519469369 0.273515609396135  50.9109546828105 0.643461901185361  63.3746091523077 8.60009478923077  L 65.4156430661538 7.42305684615386  C 58.5097524658388 2.75002386002772  50.362494015821 0.252534062724145  42.0241151402275 0.252534062724145  C 18.9723375979031 0.252534062724145  0.285179655612152 18.9396920050151  0.285179655612152 41.9914695473395  C 0.285179655612152 42.9606186643327  0.318934107435153 43.9294737841431  0.386381629230771 44.8962730615385  L 2.42741554307692 43.7234089907692  Z M 81.6604367676923 40.2841206784615  C 82.286115657413 55.0630219456422  74.6437897073343 68.9643018603779  61.8302684892308 76.3549087861539  C 49.0113467158216 83.7252769458423  33.1583793242788 83.3601568291915  20.6923737153846 75.40743488  L 18.6555136738462 76.5802990323077  C 25.5604406046745 81.251315643053  33.705905229411 83.7476516838494  42.0423560388344 83.7476516838494  C 65.0941335811589 83.7476516838494  83.7812915234498 65.0604937415585  83.7812915234498 42.008716199234  C 83.7812915234498 41.0420217335619  83.7477078409451 40.0756190363799  83.6806012384615 39.1112566076923  L 81.6604367676923 40.2841206784615  Z " fill-rule="nonzero" fill="#1890ff" stroke="none" transform="matrix(1 0 0 1 562 33 )" />
  </g>
</svg>