<?xml version="1.0" encoding="utf-8"?>
<svg version="1.1" xmlns:xlink="http://www.w3.org/1999/xlink" width="107px" height="80px" xmlns="http://www.w3.org/2000/svg">
  <g transform="matrix(1 0 0 1 -551 -35 )">
    <path d="M 79.0034571061538 46.1393883969231  C 77.3215160942401 53.3105370828979  72.7466248926235 59.4657902882675  66.3649074246154 63.1438306907692  C 59.9836587142663 66.8232603744364  52.3633872382702 67.6951415147578  45.3159622353846 65.5521672430769  L 42.88675624 66.9545955138462  C 46.1281488682395 68.1738090054994  49.5628650352782 68.798412292563  53.025971690961 68.798412292563  C 67.1014379548033 68.798412292563  79.1148006932941 58.6244428404132  81.4326631015385 44.7411339984615  L 79.0034571061538 46.1393883969231  Z M 27.0593518892308 33.8556196553846  C 28.7380484734303 26.6829646921696  33.3138063830996 20.5265453809223  39.6979015707692 16.8511773615385  C 46.0791502472898 13.1717476736285  53.6994216893086 12.2998665042981  60.7468466784615 14.4428407276923  L 63.1760527553846 13.0404125384615  C 59.9335180737766 11.8202301773782  56.497426706079 11.1951182135445  53.032909978492 11.1951182135445  C 38.9568773235646 11.1951182135445  26.9432055021904 21.3698859313722  24.62597194 35.2538739723077  L 27.0593518892308 33.8556196553846  Z M 105.482637727692 23.7965361876923  C 106.398969233999 25.3933272043432  106.224100940526 27.3918221309745  105.044378933846 28.8052084784615  C 104.713929130447 29.1972382721138  104.31688524238 29.5278726900358  103.871514863077 29.7818995723077  L 18.7240864907692 78.8627137907692  C 16.6260798878565 80.0683636680412  13.9480273579513 79.3474931703492  12.7387231061539 77.2515908446154  L 0.588519012307692 56.1984717830769  C 0.203720838250071 55.5325410523705  0.00112653479713613 54.7769982359229  0.00112653479713613 54.0078861681089  C 0.00112653479713613 52.4415119478487  0.837889319644367 50.994458793245  2.19546800461538 50.21310848  L 87.36376582 1.13229426153846  C 89.461772401577 -0.0733556293976676  92.1398249248832 0.647514830035085  93.3491292046154 2.74341712615385  L 105.482637727692 23.7965361876923  Z M 3.23894138153846 52.0204044030769  C 3.00491908630927 52.1528225976637  2.79699892926421 52.3267966122588  2.62537905384615 52.5337933061538  C 2.00484885748311 53.2721475867046  1.91307657500073 54.3200202964888  2.39581493538462 55.1549984061538  L 14.5293234584615 76.2081174676923  C 15.1650873478953 77.3033303712869  16.5676562444958 77.6768507191128  17.6639174615385 77.0428961692307  L 102.832215358462 27.9746036492308  C 103.927428310951 27.33883975745  104.300948665316 25.9362707998105  103.66699406 24.8400095646154  L 91.5376594092308 3.78271663076924  C 90.9035270501332 2.68802961816716  89.5022438617132 2.31435410125516  88.4072392784615 2.94793792923078  L 3.23894138153846 52.0204044030769  Z " fill-rule="nonzero" fill="#1890ff" stroke="none" transform="matrix(1 0 0 1 551 35 )" />
  </g>
</svg>