<?xml version="1.0" encoding="utf-8"?>
<svg version="1.1" xmlns:xlink="http://www.w3.org/1999/xlink" width="73px" height="74px" xmlns="http://www.w3.org/2000/svg">
  <g transform="matrix(1 0 0 1 -568 -38 )">
    <path d="M 71.5992383015385 48.3651031076923  L 70.0131588338461 47.6304978307692  L 68.5105571384615 48.5195371169231  L 68.7192518138461 46.7831974307692  L 67.4086492230769 45.6270289307692  L 69.1241194661538 45.2889435615385  L 69.8169857753846 43.6861684415385  L 70.6684600476923 45.2138134523077  L 72.4089736876923 45.3765952876923  L 71.2194140461538 46.6579806092308  L 71.5992383015385 48.3651031076923  Z M 29.5973475569231 5.15695706923077  L 29.6307386984615 3.40809568461539  L 28.2116149384615 2.38549175076923  L 29.8853462138461 1.88045067384616  L 30.4154306876923 0.215067143076922  L 31.4129912246154 1.65088647384616  L 33.1618526907692 1.63836485692308  L 32.1058576153846 3.03244530153846  L 32.6568115323077 4.69365487846154  L 31.0039497 4.12183151846153  L 29.5973475569231 5.15695706923077  Z M 65.0462255107692 60.4693943615384  L 63.8357963446154 59.2088785646154  L 62.1078044030769 59.4927032676923  L 62.93423536 57.9525365584615  L 62.1328478 56.3956742784615  L 63.8524919153846 56.7045423784615  L 65.0837905246154 55.4607221523077  L 65.3217024692308 57.1928879661538  L 66.8827386215385 57.9775799553846  L 65.3091807707692 58.74140242  L 65.0462255107692 60.4693943615384  Z M 18.4989645846154 9.6772837723077  L 17.8979239553846 8.03694363846154  L 16.2033231553846 7.60285871692308  L 17.5807080292308 6.52182024461538  L 17.4721867784615 4.77713273230771  L 18.9205278892308 5.74964995384616  L 20.5483463246154 5.10687035692308  L 20.0683485630769 6.78894945846154  L 21.1827781769231 8.13711706307693  L 19.4380906646154 8.20389934615385  L 18.4989645846154 9.6772837723077  Z M 53.2508022753846 69.9858716569231  L 52.6497616461538 68.3455315230769  L 50.9593347184615 67.9114466015384  L 52.33254572 66.8304081292308  L 52.2240244692308 65.0857206169231  L 53.6765394523077 66.0624117107693  L 55.3001840153846 65.4154582415385  L 54.8243602076923 67.0975373430769  L 55.93878974 68.4457049476923  L 54.1899283553846 68.5124872307692  L 53.2508022753846 69.9858716569231  Z M 29.5931736846154 68.9757894215385  L 28.8585684076923 70.5618689707692  L 29.7476077753846 72.0644706661539  L 28.0112680076923 71.8557759907692  L 26.8550995076923 73.1663785815385  L 26.5170141384615 71.4509083384615  L 24.9142390184615 70.7580419476923  L 26.4418840292308 69.9065676753846  L 26.6046658646154 68.1660541169231  L 27.8860511861539 69.3556137584615  L 29.5931736846154 68.9757894215385  Z M 4.38285668615385 30.2963179123077  L 2.79677713692308 29.5575387630769  L 1.29000148769231 30.4507520030769  L 1.49869624461538 28.7144122353846  L 0.188093653846153 27.5540698630769  L 1.90356389692307 27.2201583661538  L 2.59643020615385 25.6132093738461  L 3.44790447846154 27.1408543846154  L 5.18841811846154 27.3078101738462  L 3.99885847692308 28.5891954953846  L 4.38285668615385 30.2963179123077  Z " fill-rule="nonzero" fill="#1890ff" stroke="none" transform="matrix(1 0 0 1 568 38 )" />
  </g>
</svg>