<?xml version="1.0" encoding="utf-8"?>
<svg version="1.1" xmlns:xlink="http://www.w3.org/1999/xlink" width="57px" height="40px" xmlns="http://www.w3.org/2000/svg">
  <g transform="matrix(1 0 0 1 -575 -55 )">
    <path d="M 8.13480646307693 22.9880987415385  L 14.8881661846154 19.0980299369231  L 16.6871142815385 22.2201023230769  L 15.4349462292308 22.9380120292308  L 14.2996471723077 20.9762820153846  L 1.94074840307692 28.1178139  L 3.13030804461538 30.16719564  L 1.87813999230769 30.8892792184615  L 0.0249312292307664 27.6795551061538  L 6.81585604615384 23.7477473338461  C 6.31916271384615 23.35540138  5.88507779230769 23.0340115  5.52194902615384 22.7835779384615  L 6.74072601846154 21.7693218307692  C 7.06628968923077 22.0281032184615  7.53098317076923 22.434362188718  8.13480646307693 22.9880987415385  Z M 15.58938032 38.76541638  L 13.4982596123077 35.1341289630769  L 9.54140852461538 37.4172486938462  L 10.15079698 38.4690698969231  L 8.89862892769231 39.1869796030769  L 3.88995671846153 30.5470199769231  L 9.09480190461538 27.5418165861539  L 8.06802409846154 25.75956406  L 9.3911483876923 24.9999154676923  L 10.4221000661538 26.7821679938461  L 15.6519887307692 23.7477473338461  L 20.6105742276923 32.3376202476923  L 19.3584061753846 33.0597039076923  L 18.7907566876923 32.0955344307692  L 14.7838188876923 34.4078715123077  L 16.8707656415385 38.0266372307692  L 15.58938032 38.76541638  Z M 10.9897496353846 30.7682363507692  L 9.80853773846154 28.7188546107692  L 5.85168665076923 31.0019743415385  L 7.03289854769231 33.0513560815385  L 10.9897496353846 30.7682363507692  Z M 11.6367031046154 31.8993614538462  L 7.67985201692307 34.1824812661538  L 8.86523778615384 36.2318630061538  L 12.8220888738461 33.9487431938462  L 11.6367031046154 31.8993614538462  Z M 12.2627871307692 30.0085876769231  L 16.2697249307692 27.7004245492308  L 15.0885131153846 25.6510428092308  L 11.0607057907692 27.9759015076923  L 12.2627871307692 30.0085876769231  Z M 12.9222622984615 31.1564084323077  L 14.1034741953846 33.2057901723077  L 18.1145858676923 30.8934530907692  L 16.9292000984615 28.8440713507692  L 12.9222622984615 31.1564084323077  Z M 24.4714257630769 21.4187147630769  L 29.7096621723077 30.5261504523077  L 28.45749412 31.2357124138462  L 23.3027355646154 22.3077541307692  C 23.7705020923626 24.3420809875382  23.9766890118587 26.4277949996824  23.9162978923077 28.5143338076923  L 22.6474342692308 27.5042515723077  C 22.8372974419599 24.8450245649367  22.5214652488065 22.1739056447913  21.7166560153846 19.6322883646154  L 19.3083194630769 21.0221948553846  L 18.5987575830769 19.7700268030769  L 21.06135472 18.3509030430769  L 19.0537119476923 14.8740497169231  L 20.2808366846154 14.1644877553846  L 22.2884794569231 17.6413410815385  L 24.3754262107692 16.4267380430769  L 25.0849880907692 17.65386278  L 22.9980413369231 18.8684658184615  L 23.6700382030769 20.0288081907692  C 25.0112493538461 20.4879364820513  26.5194162123077 21.0973249374359  28.1945387784615 21.8569735569231  L 28.1110609246154 23.35540138  C 26.5500247451282 22.4649707758974  25.3368130246154 21.8194085702564  24.4714257630769 21.4187147630769  Z M 31.9301735738461 29.0861572492308  L 31.9176518753846 29.0861572492308  L 30.5820058876923 28.3807692415385  C 33.9223442586084 24.7584148242433  35.6669507884176 19.9457072105128  35.4237224707692 15.0243098538461  L 36.8428462307692 14.9658753153846  C 36.9264844433161 16.9585454751465  36.7169441420016 18.9526940827886  36.2209360769231 20.8844564169231  C 38.0063753360312 21.2267936806177  39.7579273946811 21.7268380385774  41.4549986138461 22.3787102861538  L 41.06265266 23.8395730138461  C 39.3904301612231 23.1058550654136  37.651696426097 22.5341974449441  35.8703290907692 22.1324505969231  C 35.0405823947449 24.6929027881013  33.7001819486751 27.0584823847844  31.9301735738461 29.0861572492308  Z M 24.6216859 15.8173495876923  L 23.9538629876923 14.6737027861538  L 28.4074074076923 12.1025843984615  C 27.8190050915678 11.6332822841252  27.1920933045691 11.2144102435483  26.5333292015385 10.8504162646154  L 27.7312366692308 9.87789912461538  C 28.3988155809867 10.3517376088444  29.0410858686676 10.8602596367565  29.6554015876923 11.4013702630769  L 33.5997309769231 9.09738100769231  L 34.2675538892308 10.2535495076923  L 29.3840985015385 13.0751015384615  C 29.4091418984615 15.3916124923077  29.2547078076923 17.1196043523077  28.9333180092308 18.2549034907692  C 30.3482678969231 17.3116035384615  31.4376541138462 16.5853460876923  32.1639115646154 16.0803049292308  C 32.2657517781773 15.1755082338507  32.2894915453944 14.263622483104  32.2348678015385 13.3547524507692  L 33.5997309769231 13.3130134830769  C 33.8557297830769 17.8987311784615  32.6341702635897 21.8194085158974  29.9350524184615 25.0750454953846  L 28.6202759553846 24.4072225830769  C 30.2911666167154 22.48742687354  31.4409404498875 20.1706325749909  31.9593907615385 17.6789061769231  C 30.4651368651282 18.6528146620513  29.1726211630769 19.4875933635898  28.0818436553846 20.1832422815385  L 27.20949994 19.2858551692308  L 27.3388906338461 19.1564644753846  L 27.4140207430769 19.03959548  C 27.8564534364102 18.1825560174359  28.0846262641026 16.4503901764103  28.0985392261538 13.8430979569231  L 24.6216859 15.8173495876923  Z M 43.5043803538461 4.96522638615384  L 41.6511715907692 1.74715444769231  L 42.9701220076923 0.983331983076923  L 44.8233306892308 4.19305609538462  L 51.2219095523077 0.499160267692304  L 56.0594521815384 8.87616463384616  L 54.7738929061538 9.61494378307692  L 54.1269394369231 8.49216642461539  L 49.0139198492307 11.4472831030769  L 52.5199904446154 17.5244720861539  L 51.2010400276923 18.2841206784615  L 47.6949694323077 12.2069316953846  L 42.5944715430769 15.1495266753846  L 43.2455989661538 16.2723040338462  L 41.9475180738461 17.0152570553846  L 37.1266710153846 8.63825268923077  L 43.5043803538461 4.96522638615384  Z M 39.1301399153846 9.13911997538462  L 41.8765618369231 13.9015324953846  L 46.9728858538462 10.97980704  L 44.2264639323077 6.21739443846154  L 39.1301399153846 9.13911997538462  Z M 45.5454142676923 5.44105027538463  L 48.2918362707692 10.1992889230769  L 53.4048558584615 7.24417224461538  L 50.6584338553846 2.48593359692308  L 45.5454142676923 5.44105027538463  Z " fill-rule="nonzero" fill="#1890ff" stroke="none" transform="matrix(1 0 0 1 575 55 )" />
  </g>
</svg>