<?xml version="1.0" encoding="utf-8"?>
<svg version="1.1" xmlns:xlink="http://www.w3.org/1999/xlink" width="44px" height="61px" xmlns="http://www.w3.org/2000/svg">
  <g transform="matrix(1 0 0 1 -567 -46 )">
    <path d="M 4.18113162307693 16.8595601961538  L 2.61001508846154 16.1277506615385  L 1.11745430384616 17.0125373615385  L 1.32418024230769 15.2925781576923  L 0.0259418269230771 14.1431824115385  L 1.72522838846154 13.8124210230769  L 2.41155822307693 12.2206319269231  L 3.25499971923077 13.7338651923077  L 4.97909341923077 13.8992459269231  L 3.80075603846154 15.1685427076923  L 4.18113162307693 16.8595601961538  Z M 39.5643297423077 60.1148790538462  L 39.6015403692308 58.3825163615385  L 38.1958045692308 57.3736942115385  L 39.8496114307692 56.8692830961539  L 40.3788296038462 55.2196107307692  L 41.3669791923077 56.6418846769231  L 43.0993419653846 56.6336156038462  L 42.0533091076923 58.0145443461539  L 42.5990653461539 59.6559476384615  L 40.96179655 59.0895188384615  L 39.5643297423077 60.1148790538462  Z M 8.71669692307692 5.91549322692308  L 7.51768698076923 4.66686900769231  L 5.80599685 4.94388162307692  L 6.62463120769231 3.41824478846154  L 5.83080390769231 1.88020438461538  L 7.53422504615385 2.18615871538461  L 8.75390763076923 0.95407256153846  L 8.98957504230769 2.66989718846153  L 10.5358845192308 3.44718642307691  L 8.97717155384616 4.19966851923077  L 8.71669692307692 5.91549322692308  Z " fill-rule="nonzero" fill="#f45151" stroke="none" transform="matrix(1 0 0 1 567 46 )" />
  </g>
</svg>