<?xml version="1.0" encoding="utf-8"?>
<svg version="1.1" xmlns:xlink="http://www.w3.org/1999/xlink" width="72px" height="73px" xmlns="http://www.w3.org/2000/svg">
  <g transform="matrix(1 0 0 1 -567 -33 )">
    <path d="M 70.7633964307692 47.7578851538462  L 69.1922799769231 47.0302101153846  L 67.7038537692308 47.9108622384615  L 67.9105796269231 46.1909031153846  L 66.6123412115385 45.0456418653846  L 68.3116277730769 44.7107459807692  L 68.9979576076923 43.1230913807692  L 69.8413991038462 44.6363246461538  L 71.5654928038462 44.7975708038462  L 70.3871554230769 46.0668675846154  L 70.7633964307692 47.7578851538462  Z M 29.1577499384615 4.95736313461538  L 29.1908260692308 3.22500044230769  L 27.7850902692308 2.21204371538461  L 29.4430316269231 1.71176717692308  L 29.9681153038462 0.0620948115384579  L 30.9562648923077 1.48436867692308  L 32.6886276653846 1.47196518846154  L 31.6425948076923 2.85289393076923  L 32.1883510461539 4.49843171923077  L 30.55108225 3.93200291923077  L 29.1577499384615 4.95736313461538  Z M 64.2722045153846 59.7479849807692  L 63.0731944923077 58.4993608423077  L 61.3615043615385 58.7805079538462  L 62.1801388 57.2548711192308  L 61.3863115 55.7126962192308  L 63.0897325576923 56.0186504692308  L 64.3094151423077 54.7865643961538  L 64.5450826346154 56.5023890230769  L 66.0913920307692 57.2796782576923  L 64.5326790653846 58.03629485  L 64.2722045153846 59.7479849807692  Z M 18.1640686923077 9.43504524615385  L 17.5686982576923 7.81018001923077  L 15.8900842576923 7.38019023846154  L 17.2544749346154 6.30935024230769  L 17.1469774692308 4.58112204615385  L 18.5816549846154 5.54446457692308  L 20.1941166423077 4.90774893846154  L 19.7186471615385 6.57395936923077  L 20.8225632884615 7.90940841153846  L 19.0943350923077 7.97556067307693  L 18.1640686923077 9.43504524615385  Z M 52.5880588576923 69.1746841884616  L 51.9926884230769 67.5498189615385  L 50.3182089192308 67.1198291807692  L 51.6784651 66.0489891846154  L 51.5709676346154 64.3207609884616  L 53.0097796461539 65.2882380153846  L 54.6181068076923 64.6473878807692  L 54.1467719038462 66.3135983115385  L 55.25068795 67.6490473538462  L 53.5183252576923 67.7151996153846  L 52.5880588576923 69.1746841884616  Z M 29.1536154423077 68.1741310307692  L 28.4259404038462 69.7452475653846  L 29.3065926076923 71.2336737730769  L 27.5866334038462 71.0269479153846  L 26.4413721538462 72.3251863307692  L 26.1064762692308 70.6258997692308  L 24.5188216692308 69.9395698538462  L 26.0320549346154 69.0961283576923  L 26.1933010923077 67.3720347384615  L 27.4625978730769 68.5503721192308  L 29.1536154423077 68.1741310307692  Z M 4.18113162307693 29.8595601961538  L 2.61001508846154 29.1277506615385  L 1.11745430384616 30.0125373615385  L 1.32418024230769 28.2925781576923  L 0.0259418269230771 27.1431824115385  L 1.72522838846154 26.8124210230769  L 2.41155822307693 25.2206319269231  L 3.25499971923077 26.7338651923077  L 4.97909341923077 26.8992459269231  L 3.80075603846154 28.1685427076923  L 4.18113162307693 29.8595601961538  Z " fill-rule="nonzero" fill="#f45151" stroke="none" transform="matrix(1 0 0 1 567 33 )" />
  </g>
</svg>