<?xml version="1.0" encoding="utf-8"?>
<svg version="1.1" xmlns:xlink="http://www.w3.org/1999/xlink" width="83px" height="83px" xmlns="http://www.w3.org/2000/svg">
  <g transform="matrix(1 0 0 1 -561 -28 )">
    <path d="M 2.30074181153846 43.2071504153846  C 1.66926625678578 28.5670028548683  9.23233547327012 14.7906156945644  21.9231603884615 7.46424927307692  C 34.6234429663055 0.167161688552769  50.3268890725953 0.533617920985494  62.6729618961539 8.41518823461538  L 64.6947407730769 7.24925442307692  C 57.8540000840856 2.62030665380103  49.7836025628416 0.146378081000325  41.5238876389046 0.146378081000325  C 18.6895796960361 0.146378081000325  0.178715696596944 18.6572420804395  0.178715696596944 41.491550023308  C 0.178715696596944 42.4515562241031  0.212151710195199 43.4112712012738  0.278962934615388 44.3689497307692  L 2.30074181153846 43.2071504153846  Z M 80.7862817038462 39.8003082192308  C 81.4060579625317 54.4397858895513  73.8358294270764 68.2099216541479  61.1431904846154 75.5308058730769  C 48.4452019354836 82.831642257674  32.7417908400875 82.4699666704255  20.3933890576923 74.5922704  L 18.3757446769231 75.7540697961539  C 25.2155307876492 80.3810202124582  33.284151406492 82.8538059132471  41.5419564535624 82.8538059132471  C 64.376264396431 82.8538059132471  82.8871283958701 64.3429419138079  82.8871283958701 41.5086339709394  C 82.8871283958701 40.5510592643774  82.8538615405588 39.5937735737725  82.7873880192308 38.6385089038462  L 80.7862817038462 39.8003082192308  Z " fill-rule="nonzero" fill="#f45151" stroke="none" transform="matrix(1 0 0 1 561 28 )" />
  </g>
</svg>