<?xml version="1.0" encoding="utf-8"?>
<svg version="1.1" xmlns:xlink="http://www.w3.org/1999/xlink" width="61px" height="42px" xmlns="http://www.w3.org/2000/svg">
  <g transform="matrix(1 0 0 1 -572 -47 )">
    <path d="M 1.43030891923076 31.2110225192308  L 0.694364888461539 29.9334567461538  L 15.9300607538462 21.1434731769231  L 16.6618702884615 22.4169044538462  L 10.8239319961539 25.7989395115385  C 10.9256000449145 26.7199818801553  10.9642787664576 27.6468900099238  10.9396984538462 28.5732005653846  L 17.9683776961539 40.7038739884615  L 16.6411977269231 41.4728942307692  L 10.7123000346154 31.2316951615385  C 10.146477191221 34.543332156095  9.00014339794616 37.7289923699339  7.32613048076923 40.6418562230769  L 5.83356977692307 39.9968715923077  C 8.54305670769231 35.3110854307692  9.72690677692307 30.85131955  9.38511998461538 26.61757395  L 1.43030891923076 31.2110225192308  Z M 22.0202045230769 30.5784413769231  L 22.0202045230769 30.5701723846154  L 21.6067528076923 32.1454234153846  C 19.0118326166366 31.1761328618761  16.3219231864078 30.4832144123594  13.5816549846154 30.0781648384615  L 13.9951067 28.6641599653846  C 16.7260369954853 29.0397034565345  19.4138054025792 29.6808352176235  22.0202045230769 30.5784413769231  Z M 42.8623057653846 25.8402847153846  L 38.7774027269231 28.1928249807692  C 38.1654941730769 28.5428807653846  37.0891415423077 29.1478984653846  35.5483448346154 30.0078780807692  C 34.5972115930262 30.5617137984802  33.5841705387124 31.0016233932567  32.5301472961539 31.3185199846154  C 31.6381192229293 31.5135684447871  30.7085948109897 31.4446083798626  29.8551146346154 31.1200632  C 29.5586152729234 30.9663765968727  29.2098026199227 30.9497664663252  28.9000411769231 31.0745835  C 28.4700513692308 31.3226545076923  28.2343838769231 32.5630096538461  28.1930387 34.7956489384615  L 26.7170160615385 34.4772911192308  C 26.8024627461539 32.4183015346154  27.1180642346154 31.0180783692308  27.6638205269231 30.2766216230769  L 24.5174529615385 24.8273279884615  L 21.9747249038462 26.2950816346154  L 21.2883949884615 25.1126096769231  L 25.0342675653846 22.9502572038462  L 28.9041756730769 29.6523095538462  C 29.1367615756487 29.6843872248321  29.3663129769043 29.7355523074251  29.5905055076923 29.8052867192308  C 30.2476389459777 30.0629545447156  30.9533724433909 30.17304895829  31.6577641653846 30.1277790346154  C 32.6118293366953 29.9661314969778  33.5282526035435 29.6312306429533  34.3617383807692 29.1396294461538  C 35.6406823730769 28.4312488307692  36.8300451576923 27.7614570346154  37.9298267346154 27.1302540576923  C 38.4673139807692 26.8201652307692  39.3148899730769 26.3033506269231  40.4725547923077 25.6128862961538  C 41.4290064153846 25.0285412115385  42.0781256230769 24.6150894692308  42.4199124153846 24.3725310692308  L 42.8623057653846 25.8402847153846  Z M 19.1797912884615 18.4188263192308  C 20.7795431885648 18.5970818354559  22.3581188062524 18.9307982713817  23.8931408115385 19.4152449807692  L 23.4796890961538 20.8375189269231  C 21.9504810081397 20.3171012214918  20.3706118467758 19.9595518908147  18.7663394923077 19.7708135076923  L 19.1797912884615 18.4188263192308  Z M 30.2644318538462 16.0952276884615  L 30.26856635 16.1076312576923  C 30.9045309230648 15.1142391241201  31.4576665744416 14.0701955632363  31.9223732115385 12.98607075  L 23.9468895846154 17.5671158307692  L 23.3184429384615 16.4714687769231  L 33.0138857692308 10.8774669692308  L 33.5513730153846 11.8077333692308  C 33.0152641706785 13.3580219623232  32.3124119030009 14.8455179746744  31.4551728038462 16.2440702769231  L 31.8686245192308 16.3102225384615  L 35.4160402307692 14.2429639615384  L 40.0425650115385 22.2556582961538  C 40.5759177615385 23.1735211269231  40.3361156923077 23.9094651576923  39.3355625346154 24.5007011769231  L 37.8471364076923 25.3606807384615  L 36.9292735769231 24.4345488346154  L 38.3763545807692 23.6696631692308  C 38.6285389773562 23.5784751317716  38.7965581984939 23.3390545198737  38.7965581984939 23.0708899658074  C 38.7965581984939 22.9335176504042  38.7521297300361 22.7998293350443  38.6699052615385 22.6897825730769  L 37.8926161076923 21.3419300423077  L 34.8826875615385 23.0825617269231  L 36.6605299538462 26.1669116076923  L 35.4615199307692 26.8573759384615  L 33.6795430423077 23.7771606346154  L 30.6902871384616 25.5053888307692  L 32.5012056615385 28.6393528269231  L 31.2608505153846 29.3463553038461  L 25.7784806692308 19.8286966961538  L 30.2602973576923 17.2446234346154  C 29.2045329062332 17.1522804152016  28.1440273057418 17.1260439471178  27.0849881576923 17.1660676038461  L 27.4281530346154 15.9257124576923  C 28.5251782807692 15.9560322576923  29.4706045538462 16.0125373346154  30.2644318538462 16.0952276884615  Z M 28.5486072269231 21.8132649461538  L 31.5502667 20.1015748153846  L 30.6158658038462 18.4849786615385  L 27.6142063307692 20.2008032884615  L 28.5486072269231 21.8132649461538  Z M 32.1621752 21.1641457384615  L 29.1729192961539 22.9047775038461  L 30.0825130538462 24.4841630307692  L 33.0759035346154 22.7559349153846  L 32.1621752 21.1641457384615  Z M 32.7451421461539 19.3945724192308  L 35.7550706923077 17.6539406538461  L 34.8248042923077 16.0414789961538  L 31.8148758269231 17.7821106807692  L 32.7451421461539 19.3945724192308  Z M 36.3752482653846 18.7289151461538  L 33.3653197192308 20.4695469115385  L 34.2749135576923 22.0447979423077  L 37.2889765192308 20.3083006730769  L 36.3752482653846 18.7289151461538  Z M 60.84332105 15.4626465461538  L 57.0602377653846 17.6374025884615  C 56.6054408461539 17.9020117153846  56.0720881769231 18.1996968923077  55.4560451 18.5387273538462  L 54.5960655384615 19.0348693961538  L 53.7071443423077 19.5268769423077  C 52.7211736157038 20.1024691621308  51.6724171392544 20.5630341887896  50.5814493384615 20.8995366923077  C 49.6700291272754 21.109383195073  48.7176593760398 21.0548801041149  47.8361299192308 20.7424250307692  C 47.5254374217203 20.5873186505274  47.1619006129147 20.5782302177311  46.8438457538462 20.7176178923077  C 46.3890488615385 20.9794706615385  46.1492468730769 22.2336075423077  46.1244397884615 24.4800285346154  L 44.6566862230769 24.1740742846154  C 44.7255948692308 22.0654705307692  45.0425745230769 20.6404402807692  45.6076251846154 19.8989835346154  L 42.4736611076923 14.4703624615385  L 39.8895878461538 15.9587885884615  L 39.1908544423077 14.7432405807692  L 43.0070138576923 12.5354084076923  L 46.8893254538462 19.2581333192308  L 47.2242213384615 19.3036130192308  C 47.3495231698739 19.3259601078596  47.4726443248091 19.3591613054259  47.5921934346154 19.4028414115385  C 48.2760074723327 19.625679107903  48.9949457791238 19.7209769832705  49.7132007038462 19.6839886038462  C 50.6913061209257 19.480312064083  51.628807390507 19.1156506183634  52.4874617576923 18.6048796153846  C 53.8160199730769 17.8716919153846  55.0563751192308 17.1743366769231  56.2085271961539 16.5128139  L 57.3785955846154 15.809946  L 58.5982781692308 15.1070781  C 59.4913338615385 14.5558091461538  60.0991078923077 14.1740553961539  60.4216002615385 13.96181685  L 60.84332105 15.4626465461538  Z M 37.0078294076923 8.07012978461538  C 38.6041748194663 8.26909551208056  40.1772550858095 8.62359248151122  41.7046409461539 9.12856621153846  L 41.3242653615385 10.6169924192308  C 39.7923309531672 10.0599402404256  38.2074634113214 9.66095260808112  36.5943776923077 9.42625146923076  L 37.0078294076923 8.07012978461538  Z M 55.1376872807692 15.5660095153846  L 52.5908247269231 17.0172250153846  L 51.5944060653846 15.9463851  C 52.5494795230769 15.4709156192308  53.3598448884615 15.0450603346154  54.0296366576923 14.6564156769231  C 54.329693592099 14.543808310804  54.5284548728155 14.2569186988876  54.5284548728155 13.9364275402111  C 54.5284548728155 13.7713415858334  54.4753301799619 13.6106376399658  54.3769361115385 13.4780782961538  L 49.9736753346154 5.86229761153847  L 43.2013361461538 9.77355092307693  L 42.4653921153846 8.50011956538462  L 49.2418658 4.58886633461539  L 47.5632518 1.69470432692308  L 48.8697592076923 0.938087653846154  L 50.5483732076923 3.83224966153846  L 53.2027332269231 2.30247833076923  L 53.9345427615385 3.57177511153846  L 51.2843172384615 5.12635358076923  L 55.8570932461539 13.0480885153846  C 56.46486725 14.0982558692308  56.2209307653846 14.9375628692308  55.1376872807692 15.5660095153846  Z M 46.0748255923077 10.2242132653846  C 47.6773330557312 10.7580420038949  49.2330559983535 11.4231999835223  50.7261574307692 12.2129160115385  L 50.1018453615385 13.5318269884615  C 48.6038554249058 12.7244746585751  47.0460748240922 12.0333563913386  45.44224445 11.4645684115385  L 46.0748255923077 10.2242132653846  Z " fill-rule="nonzero" fill="#f45151" stroke="none" transform="matrix(1 0 0 1 572 47 )" />
  </g>
</svg>