<?xml version="1.0" encoding="utf-8"?>
<svg version="1.1" xmlns:xlink="http://www.w3.org/1999/xlink" width="106px" height="79px" xmlns="http://www.w3.org/2000/svg">
  <g transform="matrix(1 0 0 1 -550 -30 )">
    <path d="M 78.2581414730769 45.5814696384616  C 76.5920678292001 52.6849659783422  72.0603359785422 58.7821507572461  65.7388233923077 62.4254926653846  C 59.4177751414902 66.0702107482625  51.8693930190412 66.9338665948073  44.8884531576923 64.8111090615385  L 42.4821642 66.2003068769231  C 45.6929776525014 67.4080183545042  49.0952908368322 68.0267291577275  52.5257266750085 68.0267291577275  C 66.4684055212675 68.0267291577275  78.3684346490178 57.9487405494659  80.6644304307692 44.1964063192308  L 78.2581414730769 45.5814696384616  Z M 26.8040749846154 33.4135855076923  C 28.4669348085866 26.3085971007341  32.9995251908062 20.2102572169513  39.3233930653846 16.5695624807692  C 45.6444412826927 12.9248443936886  53.192823371485 12.0611885184085  60.1737632192308 14.1839460038462  L 62.5800522576923 12.7947482692308  C 59.3681075259108 11.5860770624973  55.9644321145122 10.9668623813413  52.5325995069968 10.9668623813413  C 38.589359612965 10.9668623813413  26.6890243182074 21.0456417244725  24.39365145 34.7986487461538  L 26.8040749846154 33.4135855076923  Z M 104.487518503846 23.4493990538462  C 105.395205373301 25.0311260043022  105.221986780709 27.0107672052106  104.053394226923 28.4108197192308  C 103.726061874499 28.7991511186033  103.33276368349 29.1266663439034  102.891594911538 29.3782967461539  L 18.5474441653846 77.9960844153846  C 16.4692300775937 79.1903602372107  13.816442194197 78.4762904045912  12.6185464730769 76.4001607423077  L 0.582966946153846 55.5456560115385  C 0.201798943549599 54.8860076462161  0.0011159071103707 54.1375925921878  0.0011159071103707 53.3757362985984  C 0.0011159071103707 51.8241391936237  0.829984703421306 50.3907374838748  2.17475604230769 49.6167584  L 86.53957935 0.99897073076923  C 88.6177934166564 -0.195305104592036  91.2705812935164 0.518764690129089  92.4684770423077 2.59489432307692  L 104.487518503846 23.4493990538462  Z M 3.20838533076923 51.4070043615385  C 2.9765707930422 51.5381733278745  2.77061214691266 51.7105060781809  2.60061132692308 51.9155499730769  C 1.98593518901629 52.6469386472074  1.89502868278374 53.6849257653898  2.37321290769231 54.5120267230769  L 14.3922543692308 75.3665314538461  C 15.0220204861227 76.451412160237  16.4113576006798 76.8214087311967  17.4972767307692 76.1934348846154  L 101.862100119231 27.5880507846154  C 102.946980874055 26.9582846653986  103.316977451493 25.5689474903783  102.68900355 24.4830283423077  L 90.6740965846154 3.62438911538462  C 90.045946606264 2.54002933875048  88.6578830705649 2.16987906256407  87.5732087192308 2.79748568461538  L 3.20838533076923 51.4070043615385  Z " fill-rule="nonzero" fill="#f45151" stroke="none" transform="matrix(1 0 0 1 550 30 )" />
  </g>
</svg>