<?xml version="1.0" encoding="utf-8"?>
<svg version="1.1" xmlns:xlink="http://www.w3.org/1999/xlink" width="5px" height="5px" xmlns="http://www.w3.org/2000/svg">
  <g transform="matrix(1 0 0 1 -25 -103 )">
    <path d="M 27.5 103  C 28.9 103  30 104.1  30 105.5  C 30 106.9  28.9 108  27.5 108  C 26.1 108  25 106.9  25 105.5  C 25 104.1  26.1 103  27.5 103  Z " fill-rule="nonzero" fill="#dcdfe6" stroke="none" />
    <path d="M 27.5 103.5  C 28.62 103.5  29.5 104.38  29.5 105.5  C 29.5 106.62  28.62 107.5  27.5 107.5  C 26.38 107.5  25.5 106.62  25.5 105.5  C 25.5 104.38  26.38 103.5  27.5 103.5  Z " stroke-width="1" stroke="#dcdfe6" fill="none" />
  </g>
</svg>