<?xml version="1.0" encoding="utf-8"?>
<svg version="1.1" xmlns:xlink="http://www.w3.org/1999/xlink" width="26px" height="26px" xmlns="http://www.w3.org/2000/svg">
  <g transform="matrix(1 0 0 1 -237 -155 )">
    <path d="M 7.15 10  L 7.15 13  L 18.85 13  L 18.85 10  L 7.15 10  Z M 24.7 7.15  C 24.6754019657612 6.14304858423142  24.1187812781894 5.2246244497379  23.2375 4.736875  L 23.2375 1.3  L 20.3125 1.3  L 20.3125 4.225  L 17.3875 4.225  L 17.3875 1.3  L 14.4625 1.3  L 14.4625 4.225  L 11.5375 4.225  L 11.5375 1.3  L 8.6125 1.3  L 8.6125 4.225  L 5.6875 4.225  L 5.6875 1.3  L 2.7625 1.3  L 2.7625 4.736875  C 1.8812187218106 5.2246244497379  1.32459803423878 6.14304858423142  1.3 7.15  L 1.3 21.775  C 1.42496273999408 23.5036522377508  2.91938163475908 24.8088215781569  4.649125 24.7  L 21.350875 24.7  C 23.0806183652409 24.8088215781569  24.5750372600059 23.5036522377508  24.7 21.775  L 24.7 7.15  Z M 21.775 7.15  L 21.775 21.775  L 4.225 21.775  L 4.225 7.15  L 21.775 7.15  Z M 7.15 16  L 7.15 18.85  L 18.85 18.85  L 18.85 16  L 7.15 16  Z " fill-rule="nonzero" fill="#646c9a" stroke="none" fill-opacity="0.56078431372549" transform="matrix(1 0 0 1 237 155 )" />
  </g>
</svg>