<?xml version="1.0" encoding="utf-8"?>
<svg version="1.1" xmlns:xlink="http://www.w3.org/1999/xlink" width="60px" height="60px" xmlns="http://www.w3.org/2000/svg">
  <g transform="matrix(1 0 0 1 -213 -530 )">
    <path d="M 59.9821527420867 29.9302119619967  C 59.9821527420867 46.503104632572  46.5728220824889 59.9516296312322  30 60  C 13.432345612877 59.9992677980032  0.00199635730016119 46.5683249794746  0.00199635730016119 30.0006705761719  C 0.00199635730016119 13.4330161728691  13.432345612877 0.00207335434055338  30 0.00134115234374788  C 34.9859285080346 -0.0459106069262744  39.9028758733066 1.16815047788608  44.293798125 3.53067404296875  C 45.5245461112643 4.11527539898273  46.308855009572 5.35611083604057  46.308855009572 6.71864500117078  C 46.308855009572 7.30627118612833  46.1621319004017 7.88459793868678  45.8819979492188 8.401153359375  C 44.950361158761 10.0995623616284  42.8238943318821 10.7296266260005  41.1173985351562 9.8128865625  C 37.7152222175332 7.9280874150678  33.8896972827212 6.93922488826861  30.0003179591843 6.93922488826861  C 17.3305392622104 6.93922488826861  7.0596542873093 17.2101098631698  7.0596542873093 29.8798885601436  C 7.0596542873093 42.5496672571175  17.3305392622104 52.8205522320186  30.0003179591843 52.8205522320186  C 42.6229538138611 52.8205522320186  52.8742058283653 42.6231314509463  52.940663671875 30.000670546875  C 52.9486960626627 27.3166313971778  52.4827292810611 24.6522571746791  51.5642238867188 22.1302582617187  C 50.9217856926754 20.3184115470947  51.8475556152598 18.325652542207  53.6465302734375 17.6480054882813  C 54.0434820419856 17.4988241743705  54.4640698182861 17.4224014728405  54.8881285064103 17.4224014728405  C 56.3662673795637 17.4224014728405  57.6878191571448 18.3435132376089  58.1993696484375 19.7303119335938  C 59.3789505601358 23.0016147957508  59.9821527420867 26.4527367941199  59.9821527420867 29.9302119619967  Z " fill-rule="nonzero" fill="#52c41a" stroke="none" transform="matrix(1 0 0 1 213 530 )" />
  </g>
</svg>