<?xml version="1.0" encoding="utf-8"?>
<svg version="1.1" xmlns:xlink="http://www.w3.org/1999/xlink" width="42px" height="42px" xmlns="http://www.w3.org/2000/svg">
  <g transform="matrix(1 0 0 1 -855 -1234 )">
    <path d="M 41 37.28125  C 41.5812462645831 39.4864776588892  39.8704399770613 41.3410102126442  37.6666666503906 41.4479166503906  L 34.78125 41.4479166503906  C 34.2059534823879 41.4479166503906  33.7395834374153 40.9815466054181  33.7395834374153 40.40625  C 33.7395834374153 39.8309533945819  34.2059534823879 39.3645833496094  34.7812500878059 39.3645833496094  L 37.6666666503906 39.3645833496094  C 38.7367890638694 39.2813437655058  39.5404945339675 38.3522044948489  39 37.28125  L 39 4.98958334960938  C 39.46875 3.83899011180621  38.5360098881938 2.90625  37.3854166503906 3  L 5.09375 3  C 3.94315676219684 2.90625  3.01041665039063 3.83899011180621  3 4.98958334960938  L 3 37.28125  C 3.01041665039063 38.4318432378032  3.94315676219684 39.3645833496094  5.09375 39  L 24.0416666503906 39  C 24.0416667089279 39.3645833496094  24.0416666796593 39.3645833496094  24.0416667381966 39.3645833496094  C 24.6169633436146 39.3645833496094  25.0833333885872 39.8309533945819  25.0833333885872 40.40625  C 25.0833333885872 40.9815466054181  24.6169633436146 41.4479166503906  24.0416667381966 41.4479166503906  C 24.0416666796593 41.4479166503906  24.0416667089279 41.4479166503906  24.0416666503906 41  L 5.05208334960937 41  C 5.05208334960937 41.4479166503906  5.05208330078125 41.4479166503906  5.05208330078125 41.4479166503906  C 2.75089685214195 41.4479166503906  0.885416650390624 39.5824364486393  1 37.28125  L 1 4.98958334960937  C 0.885416650390624 4.98958334960937  0.885416650390624 4.98958330078124  0.885416650390624 4.98958330078124  C 0.885416650390624 2.68839685214195  2.75089685214195 0.822916650390619  5.05208330078125 0.822916650390619  C 5.05208330078125 0.822916650390619  5.05208334960937 0.82291665039062  5.05208334960937 1  L 37.34375 1  L 37.34375 0.822916650390619  C 39.6449364486393 0.822916650390619  41.5104166503906 2.68839685214195  41.5104166503906 4.98958330078124  C 41.5104166503906 4.98958330078124  41.5104166503906 4.98958334960937  41 4.98958334960937  L 41 37.28125  Z " fill-rule="nonzero" fill="#7f7f7f" stroke="none" transform="matrix(1 0 0 1 855 1234 )" />
  </g>
</svg>