<?xml version="1.0" encoding="utf-8"?>
<svg version="1.1" xmlns:xlink="http://www.w3.org/1999/xlink" width="31px" height="30px" xmlns="http://www.w3.org/2000/svg">
  <g transform="matrix(1 0 0 1 -861 -1240 )">
    <path d="M 0.666666650390624 28.1041666503906  L 0.625 27.5729166503906  C 0.771746617962966 26.9520281136413  1.02934763458486 26.3627216767695  1.38541665039062 25.8333333496094  C 2.02289660642412 24.9492079779482  2.80049267426833 24.1751304388251  3.6875 23.5416666503906  C 4.9497815979645 22.6009887994554  6.29569946896834 21.7780960220846  7.70833334960937 21.0833333496094  C 7.82698879830808 21.0199283127123  7.9329284590198 20.9351765841429  8.02083334960938 20.8333333496094  C 9.81304120192589 17.7575171805707  11.399838165472 14.5665241585288  12.7708333496094 11.28125  C 12.8226862904902 11.1835362792805  12.8226862904902 11.0664637207195  12.7708333496094 10.96875  C 12.224142312974 9.18604316513494  11.8303566448318 7.3599928300149  11.59375 5.51041665039063  C 11.4201000404052 4.37120657744249  11.4553982919418 3.20989393146419  11.6979166503906 2.08333334960938  C 11.7986311217094 1.46913495597487  12.1853106623229 0.939383995847244  12.7395833496094 0.656250000000005  C 12.9479166992187 0.552083349609379  13.1458333496094 0.500000000000005  13.3541666503906 0.395833349609379  L 13.9583333496094 0.395833349609381  C 14.8615627860301 0.558419051457639  15.5819374867461 1.24195640886927  15.7916666503906 2.13541665039063  C 16.0622928699994 2.97581175470303  16.1821940516873 3.85743802063213  16.1458333496094 4.73958334960938  C 16.1732968591625 6.59064686183541  15.9168463535061 8.43498261123353  15.3854166503906 10.2083333496094  C 15.3245950955599 10.4124262619532  15.3432004697801 10.6319695975164  15.4375 10.8229166503906  C 16.1668844232042 12.3389917666276  17.1105778667139 13.7422533954763  18.2395833496094 14.9895833496094  C 19.113236894078 15.9620995077487  20.0913574977456 16.8354214747242  21.15625 17.59375  C 21.2083333496094 17.6458333496094  21.3645833496094 17.6979166503906  21.4166666503906 17.6458333496094  C 22.9204846397377 17.4223696528059  24.4380531822961 17.3040271417519  25.9583333496094 17.2916666503906  C 26.8947644497843 17.2709867801409  27.8279810462874 17.4083280913795  28.71875 17.6979166503906  C 29.3337643161279 17.9106988651953  29.8442575184049 18.3503937467789  30.1458333496094 18.9270833496094  C 30.49667602874 19.9272119859175  30.2367492088063 21.0400236230763  29.4791666503906 21.78125  C 28.9790593931671 22.1081257995839  28.3884213921266 22.2685460030941  27.7916666503906 22.2395833496094  C 26.625815979495 22.2061079301369  25.4726312989451 21.9881278925255  24.375 21.59375  C 22.9807437282432 21.1430632673844  21.6312293556447 20.5642018106848  20.34375 19.8645833496094  C 20.2454000097051 19.821961749589  20.1381069970849 19.8040795752308  20.03125 19.8125  C 17.7291666503906 20.1666666503906  15.4895833496094 20.6770833496094  13.2395833496094 21.2395833496094  C 12.1979166992188 21.5  11.09375 21.8020833496094  10.1145833496094 22.1041666503906  C 9.95833334960938 22.15625  9.85416669921875 22.2083333007813  9.80208334960938 22.3645833496094  C 8.9601372842652 23.9427801685095  7.98801716807474 25.4479984129334  6.89583334960938 26.8645833496094  C 6.17301462597021 27.8127747150208  5.27039656881705 28.6092024125089  4.23958334960938 29.2083333496094  C 3.87507372661259 29.3712059807065  3.49905510921638 29.5069904814329  3.11458334960938 29.6145833496094  L 2.5 29.6145833496094  L 2.5 29.5833333496094  C 1.64203841344913 29.5162569954878  0.913616682013563 28.928553090818  0.666666650390624 28.1041666503906  Z M 17.8333333496094 18.3541666503906  L 17.8333333496094 18.3333333496094  C 16.375454313352 17.0449272487552  15.118492115839 15.5457013895904  14.1041666503906 13.8854166503906  C 13.2105187093923 16.028698969753  12.1878109956938 18.1158575691376  11.0416666503906 20.1354166503906  C 13.2916666503906 19.4270833007812  15.5416666503906 18.8645833007812  17.8333333496094 18.3541666503906  Z M 14.2604166503906 2.5  C 14.1789996063971 2.33213644161686  14.0775678460973 2.17474231384632  13.9583333496094 2.03125  C 13.5520833496094 2.69791665039063  13.7604166992188 6.02083334960938  14.21875 6.88541665039062  L 14.2708333496094 6.83333334960938  C 14.2708333496094 6.78125  14.3229166992187 6.6875  14.3229166503906 6.63541665039062  C 14.4731360461605 5.75851028671884  14.5255403387247 4.86763731312735  14.4791666503906 3.97916665039063  C 14.434598172927 3.48233338236647  14.3615614968617 2.98846634012112  14.2604166503906 2.5  Z M 24.7291666503906 19.4479166503906  L 24.6875 19.4479166503906  L 24.6875 19.5520833496094  C 25.1458333496094 19.7083333496094  25.6145833496094 19.9166666992188  26.0729166503906 20.0625  C 26.7858267304126 20.3389680841679  27.5487107842358 20.4631585161761  28.3125 20.4270833496094  C 28.5400210123899 20.4009799272314  28.7637414232941 20.3485454546456  28.9791666503906 20.2708333496094  L 28.9791666503906 20.2083333496094  C 27.646310068336 19.6101208639039  26.1867590258086 19.3489756907039  24.7291666503906 19.4479166503906  Z M 2.91666665039062 27.7291666503906  L 2.875 27.78125  L 2.875 27.8333333496094  C 3.90999170377339 27.0184321356016  4.77675321554592 26.0101585467047  5.42708334960937 24.8645833496094  C 4.60585190203035 25.5555518588286  3.85560844753093 26.326732323456  3.1875 27.1666666503906  C 3.0819550060733 27.3464252463759  2.99137193546044 27.5345593048041  2.91666665039062 27.7291666503906  Z " fill-rule="nonzero" fill="#7f7f7f" stroke="none" transform="matrix(1 0 0 1 861 1240 )" />
  </g>
</svg>