<?xml version="1.0" encoding="utf-8"?>
<svg version="1.1" xmlns:xlink="http://www.w3.org/1999/xlink" width="59px" height="53px" xmlns="http://www.w3.org/2000/svg">
  <g transform="matrix(1 0 0 1 -1470 -1083 )">
    <path d="M 50.689875 19.3275625  C 49.561375 8.839375  41.0328125 0.71875  30.712375 0.71875  C 22.4506875 0.71875  15.165 5.9609375  12.107375 13.7231875  C 5.6604375 15.0956875  0.90625 21.047  0.90625 28.0429375  C 0.90625 36.0949375  7.1701875 42.65625  14.943875 42.65625  C 15.996667804365 42.65625  16.850125 41.8027928043649  16.850125 40.75  C 16.850125 39.6972071956351  15.996667804365 38.84375  14.943875 38.84375  C 9.316625 38.84375  4.71875 34.0285625  4.71875 28.0429375  C 4.71875 22.52625  8.645625 17.936  13.754375 17.31075  C 14.4851905101253 17.2220237439062  15.099593393887 16.7204097953278  15.33275 16.022125  C 17.605 9.1825  23.7469375 4.53125  30.712375 4.53125  C 39.3858125 4.53125  46.5533125 11.69875  46.984125 20.8220625  C 47.0222279396221 21.6514675137281  47.5927896640365 22.3608145224596  48.39475 22.5758125  C 51.818375 23.487  54.28125 26.76575  54.28125 30.5820625  C 54.28125 35.1646875  50.7699375 38.84375  46.4846875 38.84375  C 45.431894695635 38.84375  44.5784375 39.6972071956351  44.5784375 40.75  C 44.5784375 41.8027928043649  45.431894695635 42.65625  46.4846875 42.65625  C 52.916375 42.65625  58.09375 37.2310625  58.09375 30.5820625  C 58.09375 25.538125  55.0895 21.1041875  50.689875 19.3275625  Z M 35.775375 38.287125  L 31 33.9141875  L 31 50.28125  C 31.40625 50.28125  31.40625 50.28125  31.40625 50.28125  C 31.40625 51.3340428043649  30.5527928043649 52.1875  29.5 52.1875  C 28.4472071956351 52.1875  27.59375 51.3340428043649  28 50.28125  L 28 33.9141875  L 23.224625 38.287125  C 22.8666821949003 38.6450678050997  22.3812075695259 38.8461579791178  21.875 38.8461579791178  C 20.8208773054904 38.8461579791178  19.9663420208822 37.9916226945096  19.9663420208822 36.9375  C 19.9663420208822 36.4312924304741  20.1674321949003 35.9458178050997  20.525375 35.587875  L 28.150375 27.962875  C 28.5080037527263 27.6043410161284  28.993596067978 27.4028424496993  29.5 27.4028424496993  C 30.006403932022 27.4028424496993  30.4919962472737 27.6043410161284  30.849625 27.962875  L 38.474625 35.587875  C 38.8325678050997 35.9458178050997  39.0336579791178 36.4312924304742  39.0336579791178 36.9375  C 39.0336579791178 37.9916226945096  38.1791226945096 38.8461579791178  37.125 38.8461579791178  C 36.6187924304741 38.8461579791178  36.1333178050997 38.6450678050997  35.775375 38.287125  Z " fill-rule="nonzero" fill="#70b603" stroke="none" transform="matrix(1 0 0 1 1470 1083 )" />
  </g>
</svg>