<?xml version="1.0" encoding="utf-8"?>
<svg version="1.1" xmlns:xlink="http://www.w3.org/1999/xlink" width="16px" height="10px" xmlns="http://www.w3.org/2000/svg">
  <g transform="matrix(1 0 0 1 -405 -878 )">
    <path d="M 0.9996 1.02266667382812  C 1.39998642524769 0.622038810438758  2.03914192338129 0.590937894171347  2.47653332617188 0.950800000000001  L 2.555 1.02193332617188  L 7.99486667382813 6.4618  L 13.3980666738281 0.986  C 13.7961179894576 0.582721963328073  14.4353952660642 0.547806120721001  14.875 0.905333326171875  L 14.9542 0.975733326171874  C 15.3574780495013 1.37378464460737  15.3923938924229 2.01306193627212  15.0348666738281 2.45266667382812  L 14.9644666738281 2.53113332617187  L 8.78246667382813 8.79526667382812  C 8.38131999685467 9.20162347608567  7.7359468708335 9.2334780198554  7.29673332617188 8.8686  L 7.22193332617188 8.8004  L 0.999600000000004 2.57806667382813  C 0.793157486688981 2.37175642866055  0.677168164907775 2.09186028945932  0.677168164907775 1.8  C 0.677168164907775 1.50813971054068  0.79315748668898 1.22824357133945  0.999600000000004 1.02193332617187  Z " fill-rule="nonzero" fill="#e0e6ed" stroke="none" transform="matrix(1 0 0 1 405 878 )" />
  </g>
</svg>