<?xml version="1.0" encoding="utf-8"?>
<svg version="1.1" xmlns:xlink="http://www.w3.org/1999/xlink" width="10px" height="10px" xmlns="http://www.w3.org/2000/svg">
  <g transform="matrix(1 0 0 1 -405 -193 )">
    <path d="M 9.87889973958333 5.05452039930555  C 9.87889973958333 4.78605034722222  9.66125868055556 4.56840928819444  9.39278862847222 4.56840928819444  L 5.48611111111111 4.56840928819444  L 5.48611111111111 0.661731770833333  C 5.48611111111111 0.39326171875  5.26847005208333 0.175620659722222  5 0.175620659722222  C 4.73152994791667 0.175620659722222  4.51388888888889 0.39326171875  4.51388888888889 0.661731770833333  L 4.51388888888889 4.56840928819444  L 0.6072265625 4.56840928819444  C 0.338756510416667 4.56840928819444  0.121115451388889 4.78605034722222  0.121115451388889 5.05452039930555  C 0.121115451388889 5.32299045138889  0.338756510416667 5.54063151041667  0.6072265625 5.54063151041667  L 4.51388888888889 5.54063151041667  L 4.51388888888889 9.44729383680556  C 4.51388888888889 9.71576388888889  4.73152994791667 9.93340494791667  5 9.93340494791667  C 5.26847005208333 9.93340494791667  5.48611111111111 9.71576388888889  5.48611111111111 9.44729383680556  L 5.48611111111111 5.54063151041667  L 9.39278862847222 5.54063151041667  C 9.66125868055556 5.54063151041667  9.87889973958333 5.32299045138889  9.87889973958333 5.05452039930555  Z " fill-rule="nonzero" fill="#555555" stroke="none" transform="matrix(1 0 0 1 405 193 )" />
  </g>
</svg>