<?xml version="1.0" encoding="utf-8"?>
<svg version="1.1" xmlns:xlink="http://www.w3.org/1999/xlink" width="15px" height="15px" xmlns="http://www.w3.org/2000/svg">
  <g transform="matrix(1 0 0 1 -644 -189 )">
    <path d="M 2.818125 1.875  C 2.296875 1.875  1.875 2.296875  1.875 2.818125  L 1.875 12.181875  C 1.875 12.703125  2.296875 13.125  2.818125 13.125  L 12.181875 13.125  C 12.703125 13.125  13.125 12.703125  13.125 12.181875  L 13.125 2.818125  C 13.125 2.296875  12.703125 1.875  12.181875 1.875  L 2.818125 1.875  Z M 0.9375 12.181875  L 0.9375 2.818125  C 0.9375 1.779375  1.7784375 0.9375  2.818125 0.9375  L 12.181875 0.9375  C 13.220625 0.9375  14.0625 1.7784375  14.0625 2.818125  L 14.0625 12.181875  C 14.0625002339072 13.2209354746048  13.2209354746048 14.0625002339072  12.1828127339072 14.0625002339072  L 2.818125 14.0625  C 1.77906452539522 14.0625002339072  0.937499766092785 13.2209354746048  0.937499766092785 12.1828127339072  Z " fill-rule="nonzero" fill="#c9ced5" stroke="none" transform="matrix(1 0 0 1 644 189 )" />
  </g>
</svg>