<?xml version="1.0" encoding="utf-8"?>
<svg version="1.1" xmlns:xlink="http://www.w3.org/1999/xlink" width="116px" height="80px" xmlns="http://www.w3.org/2000/svg">
  <defs>
    <filter x="724px" y="255px" width="116px" height="80px" filterUnits="userSpaceOnUse" id="filter13">
      <feOffset dx="0" dy="3" in="SourceAlpha" result="shadowOffsetInner" />
      <feGaussianBlur stdDeviation="10" in="shadowOffsetInner" result="shadowGaussian" />
      <feComposite in2="shadowGaussian" operator="atop" in="SourceAlpha" result="shadowComposite" />
      <feColorMatrix type="matrix" values="0 0 0 0 0.2  0 0 0 0 0.43921568627451  0 0 0 0 1  0 0 0 0.0980392156862745 0  " in="shadowComposite" />
    </filter>
    <g id="widget14">
      <path d="M 744.5 277  A 4.5 4.5 0 0 1 749 272.5 L 815 272.5  A 4.5 4.5 0 0 1 819.5 277 L 819.5 307  A 4.5 4.5 0 0 1 815 311.5 L 749 311.5  A 4.5 4.5 0 0 1 744.5 307 L 744.5 277  Z " fill-rule="nonzero" fill="#ffffff" stroke="none" fill-opacity="0" />
      <path d="M 744.5 277  A 4.5 4.5 0 0 1 749 272.5 L 815 272.5  A 4.5 4.5 0 0 1 819.5 277 L 819.5 307  A 4.5 4.5 0 0 1 815 311.5 L 749 311.5  A 4.5 4.5 0 0 1 744.5 307 L 744.5 277  Z " stroke-width="1" stroke="#ec808d" fill="none" />
    </g>
  </defs>
  <g transform="matrix(1 0 0 1 -724 -255 )">
    <use xlink:href="#widget14" filter="url(#filter13)" />
    <use xlink:href="#widget14" />
  </g>
</svg>