<?xml version="1.0" encoding="utf-8"?>
<svg version="1.1" xmlns:xlink="http://www.w3.org/1999/xlink" width="23px" height="23px" xmlns="http://www.w3.org/2000/svg">
  <g transform="matrix(1 0 0 1 -814 -159 )">
    <path d="M 21.7541591796875 7.3791591796875  L 20.4125 7.8583408203125  C 20.3166591796875 7.475  19.6458408203125 6.6125  19.3583408203125 6.4208408203125  L 20.6041591796875 5.4625  C 21.0833408203125 5.75  21.6583408203125 6.9  21.7541591796875 7.3791591796875  Z M 16.9625 21.0833408203125  C 16.3875 21.4666591796875  15.7166591796875 21.7541591796875  14.95 22.0416591796875  L 14.4708408203125 20.5083408203125  C 15.0458408203125 20.3166591796875  15.7166591796875 20.0291591796875  16.1958408203125 19.7416591796875  L 16.9625 21.0833408203125  Z M 20.4125 18.1125  C 19.9333408203125 18.6875  19.4541591796875 19.2625  18.8791591796875 19.7416591796875  L 17.825 18.5916591796875  C 18.3041591796875 18.1125  18.7833408203125 17.6333408203125  19.1666591796875 17.1541591796875  L 20.4125 18.1125  Z M 22.3291591796875 13.9916591796875  C 22.1375 14.6625  21.85 15.4291591796875  21.5625 16.1  L 20.125 15.4291591796875  C 20.4125 14.8541591796875  20.6041591796875 14.1833408203125  20.7958408203125 13.6083408203125  L 22.3291591796875 13.9916591796875  Z M 22.5208408203125 11.5  L 22.5208408203125 11.6916591796875  L 20.9875 11.6916591796875  L 20.9875 11.5  C 20.9875 10.925  20.8916591796875 10.35  20.7958408203125 9.775  L 22.3291591796875 9.4875  C 22.425 10.1583408203125  22.5208408203125 10.8291591796875  22.5208408203125 11.5  Z M 12.7458408203125 22.425  C 12.3625 22.5208408203125  11.8833408203125 22.5208408203125  11.5 22.5208408203125  L 11.5 20.9875  C 11.8833408203125 20.9875  12.2666591796875 20.9875  12.5541591796875 20.8916591796875  L 12.7458408203125 22.425  Z M 14.95 4.6  L 19.2625 0.670840820312502  L 19.0708408203125 4.7916591796875  L 14.95 4.6  Z M 18.975 11.4041591796875  C 18.975 7.4749775390625  15.8125 4.3125  11.8833408203125 4.3125  C 7.9541591796875 4.3125  4.7916591796875 7.475  4.7916591796875 11.4041591796875  C 4.7916591796875 15.333318359375  7.9541591796875 18.4958408203125  11.8833408203125 18.4958408203125  C 15.8125 18.4958408203125  18.975 15.3333408203125  18.975 11.4041591796875  Z M 16.3875 11.5958408203125  L 16.3875 13.1291591796875  L 10.7333408203125 13.1291591796875  L 10.7333408203125 6.9958408203125  L 12.2666591796875 6.9958408203125  L 12.2666591796875 11.5958408203125  L 16.3875 11.5958408203125  Z M 11.5 21.0833408203125  L 11.5 22.5208408203125  C 5.3666591796875 22.5208408203125  0.479159179687501 17.6333408203125  0.479159179687501 11.5  C 0.479159179687501 5.3666591796875  5.3666591796875 0.4791591796875  11.5 0.4791591796875  C 13.6083408203125 0.4791591796875  15.7166591796875 1.0541591796875  17.5375 2.3  L 16.675 3.6416591796875  C 15.1416591796875 2.6833408203125  13.3208408203125 2.1083408203125  11.5 2.1083408203125  C 6.2291591796875 2.1083408203125  2.0125 6.325  2.0125 11.5958408203125  C 2.0125 16.866681640625  6.2291591796875 21.0833408203125  11.5 21.0833408203125  Z " fill-rule="nonzero" fill="#d9001b" stroke="none" transform="matrix(1 0 0 1 814 159 )" />
  </g>
</svg>